<svg width="470" height="674" viewBox="0 0 470 674" fill="none" xmlns="http://www.w3.org/2000/svg">
<g filter="url(#filter0_d_287_9)">
<path d="M368.4 503.787C353.786 492.906 363.919 457.436 354.763 459.272C354.763 459.272 347.07 493.598 352.902 508.535C358.733 523.471 393.603 533.64 403.987 542.069C414.37 550.499 385.582 609.104 391.609 622.589C397.635 636.074 429.482 646.872 463.725 655.091L474.747 641.878C443.342 635.216 404.076 620.245 401.734 612.601C399.393 604.957 430.275 556.149 417.809 533.9C405.342 511.652 383.014 514.668 368.4 503.787Z" fill="#052B36"/>
<path d="M368.4 503.787C353.786 492.906 363.919 457.436 354.763 459.272C354.763 459.272 347.07 493.598 352.902 508.535C358.733 523.471 393.603 533.64 403.987 542.069C414.37 550.499 385.582 609.104 391.609 622.589C397.635 636.074 429.482 646.872 463.725 655.091L474.747 641.878C443.342 635.216 404.076 620.245 401.734 612.601C399.393 604.957 430.275 556.149 417.809 533.9C405.342 511.652 383.014 514.668 368.4 503.787Z" stroke="#052B36"/>
</g>
<g filter="url(#filter1_d_287_9)">
<path d="M354.347 410.364C394.369 354.945 407.675 239.755 379.719 175.981C345.902 98.8395 225.294 39.3601 152.735 69.1928C80.1767 99.0256 39.2903 230.121 88.184 323.83C126.182 396.657 211.678 442.837 276.613 445.336C276.613 445.336 255.488 508.154 267.844 516.486C280.2 524.819 292.472 502.695 302.616 503.832C312.759 504.97 320.287 524.812 332.242 518.964C344.197 513.115 340.737 488.232 349.521 484.807C358.304 481.381 378.273 499.93 386.039 492.646C393.805 485.361 375.14 457.897 379.75 451.285C384.359 444.674 417.647 441.459 420.85 435.535C424.053 429.612 385.923 406.006 359.285 409.453C357.557 409.677 355.912 409.984 354.347 410.364Z" fill="#052B36"/>
<path d="M325.796 436.31C386.978 405.49 413.535 253.122 379.719 175.981C345.902 98.8395 225.294 39.3601 152.735 69.1928C80.1767 99.0256 39.2904 230.121 88.184 323.83C126.182 396.657 211.678 442.837 276.613 445.336M325.796 436.31C312.162 443.178 295.233 446.053 276.613 445.336M325.796 436.31C325.796 436.31 332.647 412.9 359.285 409.453C385.923 406.006 424.053 429.612 420.85 435.535C417.647 441.459 384.359 444.674 379.75 451.285C375.14 457.897 393.805 485.361 386.039 492.646C378.273 499.93 358.304 481.381 349.521 484.807C340.737 488.232 344.197 513.115 332.242 518.964C320.287 524.812 312.759 504.97 302.616 503.832C292.472 502.695 280.2 524.819 267.844 516.486C255.488 508.154 276.613 445.336 276.613 445.336" stroke="#052B36"/>
</g>
<path d="M258.298 161.684C260.094 161.203 261.211 159.489 260.96 157.553C258.969 140.25 260.617 137.325 276.139 131.217C277.924 130.498 278.931 128.573 278.451 126.779C277.963 124.96 276.167 123.84 274.248 124.06C257.745 126.106 255.254 124.69 247.909 108.849C247.091 107.092 245.316 106.152 243.545 106.627C241.725 107.114 240.633 108.822 240.834 110.771C242.868 128.036 241.22 130.961 225.723 137.062C223.895 137.819 222.899 139.688 223.393 141.532C223.874 143.326 225.621 144.46 227.589 144.226C244.13 142.224 246.589 143.621 253.885 159.476C254.759 161.244 256.553 162.152 258.298 161.684Z" fill="white"/>
<defs>
<filter id="filter0_d_287_9" x="346.218" y="458.703" width="133.445" height="204.946" filterUnits="userSpaceOnUse" color-interpolation-filters="sRGB">
<feFlood flood-opacity="0" result="BackgroundImageFix"/>
<feColorMatrix in="SourceAlpha" type="matrix" values="0 0 0 0 0 0 0 0 0 0 0 0 0 0 0 0 0 0 127 0" result="hardAlpha"/>
<feOffset dy="4"/>
<feGaussianBlur stdDeviation="2"/>
<feComposite in2="hardAlpha" operator="out"/>
<feColorMatrix type="matrix" values="0 0 0 0 0 0 0 0 0 0 0 0 0 0 0 0 0 0 0.25 0"/>
<feBlend mode="normal" in2="BackgroundImageFix" result="effect1_dropShadow_287_9"/>
<feBlend mode="normal" in="SourceGraphic" in2="effect1_dropShadow_287_9" result="shape"/>
</filter>
<filter id="filter1_d_287_9" x="62.3508" y="60.8462" width="363.19" height="467.694" filterUnits="userSpaceOnUse" color-interpolation-filters="sRGB">
<feFlood flood-opacity="0" result="BackgroundImageFix"/>
<feColorMatrix in="SourceAlpha" type="matrix" values="0 0 0 0 0 0 0 0 0 0 0 0 0 0 0 0 0 0 127 0" result="hardAlpha"/>
<feOffset dy="4"/>
<feGaussianBlur stdDeviation="2"/>
<feComposite in2="hardAlpha" operator="out"/>
<feColorMatrix type="matrix" values="0 0 0 0 0 0 0 0 0 0 0 0 0 0 0 0 0 0 0.5 0"/>
<feBlend mode="normal" in2="BackgroundImageFix" result="effect1_dropShadow_287_9"/>
<feBlend mode="normal" in="SourceGraphic" in2="effect1_dropShadow_287_9" result="shape"/>
</filter>
</defs>
</svg>
