<svg width="363" height="498" viewBox="0 0 363 498" fill="none" xmlns="http://www.w3.org/2000/svg">
<g filter="url(#filter0_d_287_11)">
<path d="M152.702 366.928C160.905 359.758 153.207 339.088 158.751 339.755C158.751 339.755 164.941 359.857 162.163 369.034C159.385 378.21 139.074 385.902 133.278 391.412C127.483 396.922 147.383 430.511 144.421 438.832C141.459 447.152 122.98 455.078 102.951 461.578L95.7636 454.216C114.173 448.777 136.88 438.017 137.918 433.351C138.957 428.685 118.266 401.034 124.657 387.188C131.048 373.343 144.5 374.097 152.702 366.928Z" fill="#052B36"/>
<path d="M152.702 366.928C160.905 359.758 153.207 339.088 158.751 339.755C158.751 339.755 164.941 359.857 162.163 369.034C159.385 378.21 139.074 385.902 133.278 391.412C127.483 396.922 147.383 430.511 144.421 438.832C141.459 447.152 122.98 455.078 102.951 461.578L95.7636 454.216C114.173 448.777 136.88 438.017 137.918 433.351C138.957 428.685 118.266 401.034 124.657 387.188C131.048 373.343 144.5 374.097 152.702 366.928Z" stroke="#052B36"/>
</g>
<g filter="url(#filter1_d_287_11)">
<path d="M156.712 310.581C130.265 279.416 116.948 211.372 130.632 172.049C147.184 124.484 216.299 83.3893 260.946 97.7809C305.593 112.172 336.095 188.408 311.329 246.555C292.083 291.743 243.277 323.269 204.685 327.794C204.685 327.794 220.214 364.253 213.239 369.797C206.263 375.342 197.913 362.728 191.919 363.88C185.926 365.032 182.366 377.212 174.966 374.285C167.566 371.357 168.465 356.362 163.069 354.731C157.673 353.1 146.637 365.09 141.667 361.111C136.697 357.132 146.54 339.887 143.483 336.162C140.426 332.436 120.432 332.076 118.246 328.694C116.06 325.313 137.686 309.459 153.726 310.269C154.767 310.321 155.762 310.428 156.712 310.581Z" fill="#052B36"/>
<path d="M174.945 324.713C137.033 309.201 114.08 219.614 130.632 172.049C147.184 124.484 216.299 83.3893 260.946 97.7809C305.593 112.172 336.095 188.408 311.329 246.555C292.083 291.743 243.277 323.269 204.685 327.794M174.945 324.713C183.393 328.169 193.619 329.092 204.685 327.794M174.945 324.713C174.945 324.713 169.767 311.078 153.726 310.269C137.686 309.459 116.06 325.313 118.246 328.694C120.432 332.076 140.426 332.436 143.483 336.162C146.54 339.887 136.697 357.132 141.667 361.111C146.637 365.09 157.673 353.1 163.069 354.731C168.465 356.362 167.566 371.357 174.966 374.285C182.366 377.212 185.926 365.032 191.919 363.88C197.913 362.728 206.263 375.342 213.239 369.797C220.214 364.253 204.685 327.794 204.685 327.794" stroke="#052B36"/>
</g>
<g filter="url(#filter2_d_287_11)">
<path d="M101.059 292.21C105.854 282.428 90.7671 266.338 96.138 264.81C96.138 264.81 109.615 280.96 110.598 290.497C111.581 300.034 95.8195 314.976 92.6029 322.298C89.3863 329.62 120.719 352.911 121.202 361.73C121.685 370.548 107.703 384.999 91.7409 398.732L82.2673 394.72C97.1452 382.59 113.931 363.892 113.087 359.188C112.242 354.483 82.4735 336.973 83.0191 321.733C83.5648 306.494 96.2628 301.992 101.059 292.21Z" fill="#34A0BD"/>
<path d="M101.059 292.21C105.854 282.428 90.7671 266.338 96.138 264.81C96.138 264.81 109.615 280.96 110.598 290.497C111.581 300.034 95.8195 314.976 92.6029 322.298C89.3863 329.62 120.719 352.911 121.202 361.73C121.685 370.548 107.703 384.999 91.7409 398.732L82.2673 394.72C97.1452 382.59 113.931 363.892 113.087 359.188C112.242 354.483 82.4735 336.973 83.0191 321.733C83.5648 306.494 96.2628 301.992 101.059 292.21Z" stroke="#34A0BD"/>
</g>
<g filter="url(#filter3_d_287_11)">
<path d="M82.9854 238.689C46.5502 220.163 7.97719 162.549 5.40499 120.992C2.29366 70.7252 50.1639 6.11796 96.9045 2.14142C143.645 -1.83511 201.233 56.6955 200.857 119.895C200.565 169.011 167.73 216.945 133.883 236.03C133.883 236.03 162.293 263.657 158.002 271.467C153.71 279.276 141.134 270.867 136.052 274.246C130.969 277.624 132.391 290.234 124.435 290.393C116.479 290.552 111.515 276.374 105.907 276.954C100.3 277.535 94.7537 292.858 88.6321 291.108C82.5105 289.358 84.9259 269.65 80.667 267.395C76.4081 265.139 57.8278 272.532 54.5049 270.258C51.1821 267.984 65.0031 245.006 80.1107 239.555C81.0907 239.201 82.0494 238.915 82.9854 238.689Z" fill="#34A0BD"/>
<path d="M105.262 244.679C64.3011 245.02 8.51631 171.259 5.40499 120.992C2.29366 70.7252 50.1639 6.11796 96.9045 2.14142C143.645 -1.83511 201.233 56.6955 200.857 119.895C200.565 169.011 167.73 216.945 133.883 236.03M105.262 244.679C114.39 244.603 124.178 241.502 133.883 236.03M105.262 244.679C105.262 244.679 95.2183 234.104 80.1107 239.555C65.0031 245.006 51.1821 267.984 54.5049 270.258C57.8278 272.532 76.4081 265.139 80.667 267.395C84.9259 269.65 82.5105 289.358 88.6321 291.108C94.7537 292.858 100.3 277.535 105.907 276.954C111.515 276.374 116.479 290.552 124.435 290.393C132.391 290.234 130.969 277.624 136.052 274.246C141.134 270.867 153.71 279.276 158.002 271.467C162.293 263.657 133.883 236.03 133.883 236.03" stroke="#34A0BD"/>
</g>
<path d="M60.4778 103C62.0743 103 63.3824 101.825 63.6041 100.162C65.799 85.3511 67.8167 83.2892 82.0513 81.6707C83.6918 81.4711 84.9557 80.0965 84.9557 78.5001C84.9557 76.8814 83.7141 75.5512 82.0733 75.3073C67.9276 73.334 66.1761 71.6045 63.6041 56.816C63.3158 55.1752 62.052 54 60.4778 54C58.8594 54 57.5732 55.1752 57.3073 56.838C55.1566 71.6268 53.139 73.6888 38.9267 75.3073C37.2416 75.5291 36 76.8594 36 78.5001C36 80.0965 37.1973 81.4268 38.8823 81.6707C53.0501 83.6883 54.7795 85.3955 57.3073 100.184C57.6398 101.847 58.9257 103 60.4778 103Z" fill="#0C0C0C"/>
<path d="M260.478 257C262.074 257 263.382 255.825 263.604 254.162C265.799 239.351 267.817 237.289 282.051 235.671C283.692 235.471 284.956 234.097 284.956 232.5C284.956 230.881 283.714 229.551 282.073 229.307C267.928 227.334 266.176 225.605 263.604 210.816C263.316 209.175 262.052 208 260.478 208C258.859 208 257.573 209.175 257.307 210.838C255.157 225.627 253.139 227.689 238.927 229.307C237.242 229.529 236 230.859 236 232.5C236 234.097 237.197 235.427 238.882 235.671C253.05 237.688 254.78 239.395 257.307 254.184C257.64 255.847 258.926 257 260.478 257Z" fill="#34A0BD"/>
<defs>
<filter id="filter0_d_287_11" x="90.8262" y="339.239" width="76.554" height="130.91" filterUnits="userSpaceOnUse" color-interpolation-filters="sRGB">
<feFlood flood-opacity="0" result="BackgroundImageFix"/>
<feColorMatrix in="SourceAlpha" type="matrix" values="0 0 0 0 0 0 0 0 0 0 0 0 0 0 0 0 0 0 127 0" result="hardAlpha"/>
<feOffset dy="4"/>
<feGaussianBlur stdDeviation="2"/>
<feComposite in2="hardAlpha" operator="out"/>
<feColorMatrix type="matrix" values="0 0 0 0 0 0 0 0 0 0 0 0 0 0 0 0 0 0 0.25 0"/>
<feBlend mode="normal" in2="BackgroundImageFix" result="effect1_dropShadow_287_11"/>
<feBlend mode="normal" in="SourceGraphic" in2="effect1_dropShadow_287_11" result="shape"/>
</filter>
<filter id="filter1_d_287_11" x="113.592" y="94.3638" width="211.093" height="288.874" filterUnits="userSpaceOnUse" color-interpolation-filters="sRGB">
<feFlood flood-opacity="0" result="BackgroundImageFix"/>
<feColorMatrix in="SourceAlpha" type="matrix" values="0 0 0 0 0 0 0 0 0 0 0 0 0 0 0 0 0 0 127 0" result="hardAlpha"/>
<feOffset dy="4"/>
<feGaussianBlur stdDeviation="2"/>
<feComposite in2="hardAlpha" operator="out"/>
<feColorMatrix type="matrix" values="0 0 0 0 0 0 0 0 0 0 0 0 0 0 0 0 0 0 0.25 0"/>
<feBlend mode="normal" in2="BackgroundImageFix" result="effect1_dropShadow_287_11"/>
<feBlend mode="normal" in="SourceGraphic" in2="effect1_dropShadow_287_11" result="shape"/>
</filter>
<filter id="filter2_d_287_11" x="77.3083" y="264.241" width="48.4058" height="143.073" filterUnits="userSpaceOnUse" color-interpolation-filters="sRGB">
<feFlood flood-opacity="0" result="BackgroundImageFix"/>
<feColorMatrix in="SourceAlpha" type="matrix" values="0 0 0 0 0 0 0 0 0 0 0 0 0 0 0 0 0 0 127 0" result="hardAlpha"/>
<feOffset dy="4"/>
<feGaussianBlur stdDeviation="2"/>
<feComposite in2="hardAlpha" operator="out"/>
<feColorMatrix type="matrix" values="0 0 0 0 0 0 0 0 0 0 0 0 0 0 0 0 0 0 0.25 0"/>
<feBlend mode="normal" in2="BackgroundImageFix" result="effect1_dropShadow_287_11"/>
<feBlend mode="normal" in="SourceGraphic" in2="effect1_dropShadow_287_11" result="shape"/>
</filter>
<filter id="filter3_d_287_11" x="0.760986" y="1.44971" width="204.598" height="298.298" filterUnits="userSpaceOnUse" color-interpolation-filters="sRGB">
<feFlood flood-opacity="0" result="BackgroundImageFix"/>
<feColorMatrix in="SourceAlpha" type="matrix" values="0 0 0 0 0 0 0 0 0 0 0 0 0 0 0 0 0 0 127 0" result="hardAlpha"/>
<feOffset dy="4"/>
<feGaussianBlur stdDeviation="2"/>
<feComposite in2="hardAlpha" operator="out"/>
<feColorMatrix type="matrix" values="0 0 0 0 0 0 0 0 0 0 0 0 0 0 0 0 0 0 0.25 0"/>
<feBlend mode="normal" in2="BackgroundImageFix" result="effect1_dropShadow_287_11"/>
<feBlend mode="normal" in="SourceGraphic" in2="effect1_dropShadow_287_11" result="shape"/>
</filter>
</defs>
</svg>
