<svg width="520" height="281" viewBox="0 0 520 281" fill="none" xmlns="http://www.w3.org/2000/svg">
<path fill-rule="evenodd" clip-rule="evenodd" d="M273.603 13.2679L236.147 1C236.147 1 221.94 11.3308 221.94 24.8901C221.94 38.4493 232.273 64.2764 232.273 64.2764L248.417 91.3949C248.417 91.3949 247.771 109.474 241.959 110.765C236.147 112.057 225.815 103.663 225.815 103.663C225.815 103.663 232.273 78.4814 229.689 77.19C227.106 75.8986 192.88 73.9616 190.297 77.19C188.981 78.8338 191.684 84.9975 194.314 90.9929C196.848 96.7722 199.314 102.395 198.046 103.663C195.463 106.246 183.839 109.474 178.673 107.537C173.506 105.6 176.089 84.2925 176.089 84.2925C205.034 45.1157 204.614 16.2837 186.422 1L144.446 11.3308C158.888 31.3505 154.825 51.8498 148.742 82.5399C147.977 86.4 147.18 90.4214 146.383 94.6233C145.511 111.587 148.444 120.279 166.403 132.718C189.405 133.735 199.037 131.293 207.087 118.513L225.815 132.718C251.41 135.667 259.109 131.344 267.145 118.513C274.612 107.291 275.192 98.4143 272.311 79.7727L265.208 49.4258L273.603 13.2679ZM447.318 90.7492C464.657 102.485 474.597 105.323 492.523 106.246C492.523 106.246 487.357 110.765 473.15 110.765C459.968 110.765 447.342 102.984 443.009 100.313C442.672 100.105 442.385 99.9286 442.152 99.7887C438.923 97.8517 422.779 77.19 422.779 77.19L400.176 94.6233C391.282 99.4416 385.707 101.472 371.116 99.7887C364.472 98.2372 359.492 90.1036 360.138 79.7727C360.783 69.4419 365.455 65.2959 375.636 59.7567C372.39 74.0564 372.32 81.1424 389.844 84.2925C400.07 84.7339 404.763 82.4457 411.154 73.9616C418.394 64.3805 412.446 51.3629 411.154 49.4258C409.863 47.4888 393.457 41.006 380.157 42.3234C362.664 46.5588 354.31 51.5818 341.41 64.2764C329.544 85.964 325.911 98.1167 341.41 119.805C328.226 115.124 321.228 111.19 311.704 94.6233C311.652 84.8392 312.432 79.3457 318.807 69.4419C327.756 55.5467 332.149 47.328 334.306 28.7642C335.108 15.4747 331.431 9.75101 321.391 1L282.644 13.2679L291.685 24.8901C291.443 40.2679 290.58 48.9763 287.164 64.2764C282.913 86.486 283.475 98.5554 296.205 118.513C315.292 135.522 347.222 144.341 360.138 143.695C373.053 143.049 400.445 133.639 416.967 118.513L422.779 125.616C435.043 134.645 443.401 137.793 460.234 139.175C477.971 139.453 486.753 136.719 500.273 126.907C510.895 117.649 514.994 110.84 513.188 90.7492C508.412 70.4309 502.698 60.173 484.774 44.9061C462.455 34.7966 452.27 35.6796 437.632 47.4888C431.268 66.5813 434.492 75.8223 447.318 90.7492ZM475.087 13.2679C480.899 8.74814 492.245 12.7874 503.501 20.3703C520.358 31.2104 519.646 41.6777 515.126 44.9061C510.605 48.1345 498.07 46.65 486.711 39.095C475.6 30.394 469.275 17.7876 475.087 13.2679ZM144.446 110.765L125.718 136.592L99.887 126.907C81.5417 134.82 67.4091 137.308 32.0798 136.592C32.0798 136.592 -0.854909 132.073 1.08222 113.348C1.89128 105.527 5.26371 100.382 8.7405 95.0768C13.5881 87.6803 18.6387 79.9741 17.2268 64.2764H66.9521C74.6368 73.5733 65.6492 82.5948 35.3087 103.663L48.2244 113.348C89.0987 113.284 95.4944 100.82 102.47 75.253H139.926C140.806 85.7832 137.838 92.7274 130.885 105.6L144.446 110.765ZM519 192.121V154.026C508.562 147.197 501.604 145.462 486.711 146.923C470.514 151.081 465.938 156.87 466.692 174.042L478.316 219.885C471.787 235.878 466.665 243.899 451.193 254.106L488.002 256.043L516.417 256.688C518.214 241.807 517.64 233.462 511.896 218.593C503.521 202.046 496.429 193.573 483.482 178.561C495.77 191.785 503.43 195.291 519 192.121ZM461.525 217.302C458.806 238.276 454.943 248.01 435.048 254.106C420.28 254.598 413 251.818 402.113 239.901C381.362 254.995 367.28 260.11 333.014 256.688C310.407 252.067 298.89 245.675 279.414 230.861C279.414 230.861 258.104 245.066 243.251 247.649C228.398 250.232 202.021 250.302 176.089 245.066C143.452 239.043 127.159 231.139 99.0324 217.495L99.0323 217.495L97.3037 216.656L94.7205 228.924C85.8295 244.811 72.1181 257.334 54.0362 257.98C35.9543 258.626 11.0386 243.679 1.08198 223.759L34.0169 203.097C34.0169 203.097 48.8699 223.759 58.5567 219.885C68.2434 216.011 61.7856 199.223 61.7856 199.223L48.8699 179.207C48.8699 179.207 75.347 158.545 81.1591 157.9C84.1134 157.572 100.416 168.921 118.023 181.179C135.055 193.037 153.309 205.744 161.882 209.554C179.318 217.302 217.419 221.176 233.564 211.491C249.708 201.806 260.687 176.624 260.687 176.624H303.308C303.308 176.624 305 187 308.475 209.554C311.949 232.108 333.014 235.381 333.014 235.381C324.468 225.903 321.915 220.673 321.39 211.491C322.041 198.682 324.766 191.691 336.889 179.853C362.443 163.293 374.031 161.305 391.781 165.648C401.189 168.777 405.268 173.871 406.634 182.436C408 191 406.634 195.5 395.655 201.806C384.677 208.112 378.232 206.971 371.116 203.743C364 200.514 363.208 192.102 366.595 179.853C366.595 179.853 353.5 187 350.451 197.286C347.401 207.572 356.263 219.885 356.263 219.885C356.263 219.885 366.595 225.5 385.323 221.176C398.499 218.134 405.282 209.464 409.27 204.367C410.95 202.219 412.134 200.706 413.092 200.514C416.32 199.869 419 200.514 425.361 203.743C431.723 206.971 443.592 215.292 445.381 230.861C445.381 230.861 446.761 225.108 445.381 209.554C444 194 421.487 181.79 421.487 181.79C407.997 169.398 406.995 164.483 404.243 150.987C403.983 149.713 403.708 148.363 403.405 146.923H460.234L461.525 217.302ZM54 44.8571C54 40.1429 63.758 37.9979 69.6977 38C75.6374 38.0021 84.5469 40.1429 84.9712 44.8571C85.3954 49.5714 81.1528 53.0022 71.3948 53C61.6367 52.9978 54 49.5714 54 44.8571ZM287.698 266C281.758 265.998 272 268 272 272.4C272 276.8 279.637 279.998 289.395 280C299.153 280.002 303.395 276.8 302.971 272.4C302.547 268 293.637 266.002 287.698 266ZM237 272.4C237 268 246.758 265.998 252.698 266C258.637 266.002 267.547 268 267.971 272.4C268.395 276.8 264.153 280.002 254.395 280C244.637 279.998 237 276.8 237 272.4ZM104.698 38C98.758 37.9979 89 40.1429 89 44.8571C89 49.5714 96.6367 52.9978 106.395 53C116.153 53.0022 120.395 49.5714 119.971 44.8571C119.547 40.1429 110.637 38.0021 104.698 38ZM214 148.4C214 144 223.758 141.998 229.698 142C235.637 142.002 244.547 144 244.971 148.4C245.395 152.8 241.153 156.002 231.395 156C221.637 155.998 214 152.8 214 148.4ZM196.698 142C190.758 141.998 181 144 181 148.4C181 152.8 188.637 155.998 198.395 156C208.153 156.002 212.395 152.8 211.971 148.4C211.547 144 202.637 142.002 196.698 142Z" fill="url(#paint0_linear_71_35)"/>
<path d="M236.147 1L236.303 0.524838L236.06 0.445269L235.853 0.595609L236.147 1ZM273.603 13.2679L274.09 13.381L274.193 12.9352L273.758 12.7927L273.603 13.2679ZM232.273 64.2764L231.808 64.4622L231.823 64.4985L231.843 64.5322L232.273 64.2764ZM248.417 91.3949L248.917 91.4128L248.922 91.2656L248.847 91.1391L248.417 91.3949ZM225.815 103.663L225.33 103.539L225.251 103.849L225.499 104.051L225.815 103.663ZM190.297 77.19L190.687 77.5024L190.297 77.19ZM194.314 90.9929L193.856 91.1937L194.314 90.9929ZM198.046 103.663L197.693 103.309L198.046 103.663ZM176.089 84.2925L175.687 83.9953L175.609 84.1014L175.593 84.2323L176.089 84.2925ZM186.422 1L186.744 0.617168L186.549 0.453788L186.302 0.514488L186.422 1ZM144.446 11.3308L144.327 10.8453L143.607 11.0224L144.041 11.6234L144.446 11.3308ZM148.742 82.5399L149.232 82.6371L148.742 82.5399ZM146.383 94.6233L145.892 94.5302L145.886 94.5637L145.884 94.5976L146.383 94.6233ZM166.403 132.718L166.118 133.129L166.237 133.211L166.381 133.218L166.403 132.718ZM207.087 118.513L207.389 118.115L206.955 117.785L206.664 118.247L207.087 118.513ZM225.815 132.718L225.513 133.117L225.622 133.199L225.758 133.215L225.815 132.718ZM267.145 118.513L266.728 118.236L266.721 118.248L267.145 118.513ZM272.311 79.7727L272.805 79.6964L272.802 79.6774L272.798 79.6588L272.311 79.7727ZM265.208 49.4258L264.72 49.3128L264.694 49.4263L264.721 49.5398L265.208 49.4258ZM492.523 106.246L492.852 106.622L493.781 105.81L492.549 105.746L492.523 106.246ZM447.318 90.7492L446.939 91.0751L446.983 91.1258L447.038 91.1633L447.318 90.7492ZM443.009 100.313L443.272 99.8876L443.009 100.313ZM442.152 99.7887L442.409 99.36L442.409 99.36L442.152 99.7887ZM422.779 77.19L423.173 76.8821L422.867 76.4906L422.473 76.7941L422.779 77.19ZM400.176 94.6233L400.414 95.0629L400.45 95.0438L400.482 95.0192L400.176 94.6233ZM371.116 99.7887L371.002 100.276L371.03 100.282L371.059 100.285L371.116 99.7887ZM375.636 59.7567L376.124 59.8674L376.369 58.789L375.397 59.3175L375.636 59.7567ZM389.844 84.2925L389.755 84.7846L389.788 84.7905L389.822 84.792L389.844 84.2925ZM411.154 73.9616L410.756 73.6602L410.755 73.6607L411.154 73.9616ZM380.157 42.3234L380.108 41.8258L380.073 41.8293L380.039 41.8374L380.157 42.3234ZM341.41 64.2764L341.059 63.9201L341.007 63.9718L340.971 64.0364L341.41 64.2764ZM341.41 119.805L341.243 120.276L342.741 120.808L341.817 119.514L341.41 119.805ZM311.704 94.6233L311.204 94.6259L311.205 94.758L311.27 94.8725L311.704 94.6233ZM318.807 69.4419L318.387 69.1712L318.387 69.1712L318.807 69.4419ZM334.306 28.7642L334.803 28.8219L334.805 28.8081L334.805 28.7943L334.306 28.7642ZM321.391 1L321.719 0.623072L321.507 0.438553L321.24 0.523322L321.391 1ZM282.644 13.2679L282.493 12.7912L281.808 13.008L282.249 13.5749L282.644 13.2679ZM291.685 24.8901L292.185 24.8979L292.187 24.722L292.079 24.5831L291.685 24.8901ZM287.164 64.2764L286.676 64.1675L286.674 64.1749L286.673 64.1824L287.164 64.2764ZM296.205 118.513L295.784 118.782L295.821 118.841L295.872 118.887L296.205 118.513ZM416.967 118.513L417.353 118.197L417.019 117.788L416.629 118.145L416.967 118.513ZM422.779 125.616L422.392 125.933L422.431 125.981L422.482 126.019L422.779 125.616ZM460.234 139.175L460.193 139.673L460.21 139.675L460.226 139.675L460.234 139.175ZM500.273 126.907L500.566 127.312L500.584 127.299L500.601 127.284L500.273 126.907ZM513.188 90.7492L513.686 90.7045L513.683 90.6692L513.675 90.6348L513.188 90.7492ZM484.774 44.9061L485.098 44.5255L485.044 44.4797L484.98 44.4506L484.774 44.9061ZM437.632 47.4888L437.318 47.0997L437.204 47.1917L437.157 47.3307L437.632 47.4888ZM503.501 20.3703L503.222 20.7851L503.231 20.7909L503.501 20.3703ZM475.087 13.2679L474.78 12.8732L475.087 13.2679ZM515.126 44.9061L514.835 44.4992L515.126 44.9061ZM486.711 39.095L486.403 39.4887L486.418 39.5006L486.434 39.5113L486.711 39.095ZM125.718 136.592L125.543 137.061L125.9 137.194L126.123 136.886L125.718 136.592ZM144.446 110.765L144.851 111.059L145.234 110.53L144.624 110.298L144.446 110.765ZM99.887 126.907L100.063 126.439L99.874 126.368L99.689 126.448L99.887 126.907ZM32.0798 136.592L32.0118 137.088L32.0406 137.092L32.0697 137.092L32.0798 136.592ZM1.08222 113.348L0.584875 113.297L1.08222 113.348ZM8.7405 95.0768L9.15869 95.3509L8.7405 95.0768ZM17.2268 64.2764V63.7764H16.6798L16.7288 64.3212L17.2268 64.2764ZM66.9521 64.2764L67.3375 63.9579L67.1875 63.7764H66.9521V64.2764ZM35.3087 103.663L35.0235 103.252L34.4545 103.647L35.0088 104.063L35.3087 103.663ZM48.2244 113.348L47.9244 113.748L48.0581 113.848L48.2252 113.848L48.2244 113.348ZM102.47 75.253V74.753H102.088L101.988 75.1214L102.47 75.253ZM139.926 75.253L140.424 75.2113L140.385 74.753H139.926V75.253ZM130.885 105.6L130.445 105.362L130.174 105.864L130.707 106.067L130.885 105.6ZM519 154.026H519.5V153.755L519.274 153.607L519 154.026ZM519 192.121L519.1 192.611L519.5 192.529V192.121H519ZM486.711 146.923L486.662 146.426L486.624 146.429L486.587 146.439L486.711 146.923ZM466.692 174.042L466.192 174.064L466.194 174.115L466.207 174.165L466.692 174.042ZM478.316 219.885L478.779 220.074L478.841 219.921L478.8 219.762L478.316 219.885ZM451.193 254.106L450.917 253.688L449.649 254.525L451.167 254.605L451.193 254.106ZM488.002 256.043L487.976 256.542L487.984 256.542L487.991 256.543L488.002 256.043ZM516.417 256.688L516.406 257.188L516.859 257.199L516.913 256.748L516.417 256.688ZM511.896 218.593L512.363 218.413L512.354 218.39L512.342 218.368L511.896 218.593ZM483.482 178.561L483.848 178.221L483.103 178.888L483.482 178.561ZM435.048 254.106L435.065 254.605L435.131 254.603L435.195 254.584L435.048 254.106ZM461.525 217.302L462.021 217.366L462.026 217.33L462.025 217.293L461.525 217.302ZM402.113 239.901L402.482 239.564L402.181 239.233L401.819 239.497L402.113 239.901ZM333.014 256.688L332.914 257.178L332.939 257.183L332.965 257.186L333.014 256.688ZM279.414 230.861L279.717 230.463L279.434 230.248L279.137 230.445L279.414 230.861ZM243.251 247.649L243.336 248.142L243.251 247.649ZM176.089 245.066L176.188 244.576L176.18 244.575L176.089 245.066ZM99.0324 217.495L99.2506 217.045L99.2214 217.031L99.1905 217.021L99.0324 217.495ZM99.0323 217.495L98.8141 217.945L98.8433 217.959L98.8742 217.969L99.0323 217.495ZM97.3037 216.656L97.5219 216.207L96.9462 215.927L96.8144 216.553L97.3037 216.656ZM94.7205 228.924L95.1568 229.169L95.1941 229.102L95.2098 229.027L94.7205 228.924ZM1.08198 223.759L0.81627 223.335L0.431849 223.577L0.634738 223.982L1.08198 223.759ZM34.0169 203.097L34.4229 202.805L34.1489 202.424L33.7512 202.674L34.0169 203.097ZM61.7856 199.223L62.2523 199.044L62.2337 198.995L62.2057 198.952L61.7856 199.223ZM48.8699 179.207L48.5623 178.813L48.202 179.094L48.4498 179.478L48.8699 179.207ZM81.1591 157.9L81.2143 158.397L81.1591 157.9ZM118.023 181.179L117.737 181.589L118.023 181.179ZM161.882 209.554L162.085 209.097L161.882 209.554ZM260.687 176.624V176.124H260.359L260.228 176.425L260.687 176.624ZM303.308 176.624L303.802 176.544L303.734 176.124H303.308V176.624ZM333.014 235.381L332.938 235.875L334.328 236.091L333.386 235.046L333.014 235.381ZM321.39 211.491L320.891 211.466L320.89 211.493L320.891 211.52L321.39 211.491ZM336.889 179.853L336.617 179.433L336.575 179.46L336.54 179.495L336.889 179.853ZM391.781 165.648L391.939 165.173L391.919 165.167L391.9 165.162L391.781 165.648ZM366.595 179.853L367.077 179.986L367.392 178.848L366.356 179.414L366.595 179.853ZM356.263 219.885L355.857 220.177L355.924 220.27L356.024 220.324L356.263 219.885ZM385.323 221.176L385.435 221.663L385.323 221.176ZM409.27 204.367L408.876 204.059L409.27 204.367ZM413.092 200.514L413.19 201.005L413.092 200.514ZM445.381 230.861L444.884 230.918L445.867 230.978L445.381 230.861ZM421.487 181.79L421.148 182.158L421.194 182.2L421.248 182.229L421.487 181.79ZM404.243 150.987L403.753 151.086V151.086L404.243 150.987ZM403.405 146.923V146.423H402.789L402.916 147.026L403.405 146.923ZM460.234 146.923L460.734 146.914L460.725 146.423H460.234V146.923ZM69.6977 38L69.6979 37.5L69.6977 38ZM71.3948 53L71.3946 53.5L71.3948 53ZM287.698 266L287.698 266.5L287.698 266ZM289.395 280L289.395 280.5L289.395 280ZM302.971 272.4L303.469 272.352L302.971 272.4ZM267.971 272.4L268.469 272.352L267.971 272.4ZM104.698 38L104.698 37.5L104.698 38ZM106.395 53L106.395 53.5L106.395 53ZM119.971 44.8571L120.469 44.8123V44.8123L119.971 44.8571ZM229.698 142L229.698 142.5L229.698 142ZM244.971 148.4L245.469 148.352L244.971 148.4ZM196.698 142L196.698 142.5L196.698 142ZM211.971 148.4L212.469 148.352L211.971 148.4ZM235.992 1.47516L273.447 13.743L273.758 12.7927L236.303 0.524838L235.992 1.47516ZM222.44 24.8901C222.44 18.2815 225.907 12.4209 229.428 8.17974C231.184 6.06506 232.941 4.36818 234.259 3.20026C234.918 2.61658 235.466 2.16577 235.848 1.86171C236.039 1.7097 236.189 1.59442 236.29 1.51761C236.341 1.47921 236.379 1.45042 236.405 1.43148C236.417 1.42201 236.427 1.415 236.433 1.41047C236.436 1.40821 236.438 1.40657 236.44 1.40556C236.44 1.40505 236.441 1.4047 236.441 1.4045C236.441 1.40441 236.441 1.40438 236.441 1.40433C236.441 1.40434 236.441 1.40439 236.147 1C235.853 0.595609 235.853 0.595738 235.853 0.595907C235.853 0.596016 235.852 0.596224 235.852 0.596442C235.851 0.596877 235.851 0.59747 235.85 0.59822C235.848 0.599721 235.845 0.60185 235.841 0.604605C235.833 0.610116 235.823 0.618129 235.808 0.628618C235.78 0.649596 235.739 0.680479 235.685 0.721051C235.579 0.802192 235.423 0.922107 235.226 1.07906C234.831 1.39293 234.269 1.85515 233.596 2.45186C232.25 3.6447 230.455 5.37798 228.659 7.54092C225.077 11.855 221.44 17.9395 221.44 24.8901H222.44ZM232.273 64.2764C232.737 64.0907 232.737 64.0907 232.737 64.0905C232.737 64.0903 232.737 64.0901 232.736 64.0897C232.736 64.089 232.736 64.0879 232.735 64.0863C232.734 64.0833 232.732 64.0787 232.73 64.0726C232.725 64.0604 232.717 64.042 232.708 64.0176C232.688 63.9687 232.66 63.8959 232.622 63.8001C232.547 63.6086 232.436 63.3256 232.295 62.9603C232.013 62.2298 231.611 61.1703 231.127 59.8565C230.161 57.2284 228.872 53.5837 227.583 49.5169C224.999 41.362 222.44 31.5832 222.44 24.8901H221.44C221.44 31.7562 224.048 41.6706 226.63 49.819C227.924 53.9039 229.218 57.5635 230.189 60.2017C230.674 61.521 231.079 62.5853 231.362 63.3201C231.504 63.6875 231.615 63.9726 231.691 64.166C231.729 64.2628 231.758 64.3366 231.778 64.3863C231.788 64.4112 231.796 64.43 231.801 64.4427C231.803 64.4491 231.805 64.4539 231.806 64.4571C231.807 64.4587 231.807 64.46 231.808 64.4608C231.808 64.4612 231.808 64.4616 231.808 64.4618C231.808 64.462 231.808 64.4622 232.273 64.2764ZM248.847 91.1391L232.702 64.0207L231.843 64.5322L247.988 91.6507L248.847 91.1391ZM242.068 111.253C243.762 110.877 244.982 109.31 245.873 107.406C246.777 105.474 247.412 103.046 247.859 100.689C248.307 98.3267 248.571 96.0089 248.723 94.2839C248.8 93.4207 248.848 92.7045 248.877 92.2034C248.892 91.9529 248.902 91.756 248.908 91.6214C248.911 91.5541 248.913 91.5024 248.915 91.4672C248.915 91.4497 248.916 91.4363 248.916 91.4271C248.916 91.4226 248.917 91.4191 248.917 91.4167C248.917 91.4155 248.917 91.4146 248.917 91.4139C248.917 91.4136 248.917 91.4133 248.917 91.4131C248.917 91.4129 248.917 91.4128 248.417 91.3949C247.917 91.3771 247.917 91.3771 247.917 91.3771C247.917 91.3772 247.917 91.3774 247.917 91.3776C247.917 91.378 247.917 91.3787 247.917 91.3797C247.917 91.3817 247.917 91.3848 247.917 91.3889C247.917 91.3972 247.916 91.4097 247.916 91.4264C247.914 91.4598 247.912 91.5097 247.909 91.5751C247.903 91.706 247.893 91.8988 247.879 92.1451C247.85 92.6378 247.803 93.3441 247.727 94.196C247.577 95.9011 247.316 98.1838 246.877 100.503C246.436 102.827 245.819 105.161 244.967 106.982C244.103 108.831 243.062 110.008 241.851 110.277L242.068 111.253ZM225.815 103.663C225.499 104.051 225.5 104.051 225.5 104.051C225.5 104.051 225.5 104.051 225.5 104.051C225.501 104.052 225.501 104.052 225.502 104.053C225.503 104.054 225.505 104.056 225.508 104.058C225.513 104.062 225.521 104.068 225.531 104.077C225.552 104.093 225.582 104.117 225.621 104.148C225.7 104.211 225.816 104.302 225.964 104.417C226.262 104.646 226.692 104.972 227.227 105.359C228.295 106.132 229.782 107.151 231.455 108.13C233.125 109.108 234.994 110.054 236.824 110.674C238.644 111.291 240.483 111.605 242.068 111.253L241.851 110.277C240.529 110.571 238.898 110.321 237.145 109.727C235.403 109.136 233.599 108.226 231.96 107.267C230.323 106.309 228.864 105.31 227.813 104.549C227.288 104.169 226.866 103.849 226.576 103.625C226.431 103.513 226.318 103.425 226.243 103.365C226.205 103.335 226.177 103.312 226.158 103.297C226.148 103.289 226.141 103.284 226.136 103.28C226.134 103.278 226.132 103.277 226.131 103.276C226.131 103.275 226.13 103.275 226.13 103.275C226.13 103.275 226.13 103.275 226.13 103.275C226.13 103.275 226.13 103.275 225.815 103.663ZM229.466 77.6372C229.462 77.6352 229.527 77.6685 229.603 77.8738C229.675 78.0698 229.733 78.3567 229.766 78.7416C229.833 79.5084 229.796 80.5624 229.676 81.8238C229.436 84.34 228.875 87.5886 228.23 90.8126C227.586 94.0331 226.861 97.2149 226.297 99.5926C226.015 100.781 225.773 101.768 225.602 102.458C225.516 102.803 225.448 103.073 225.402 103.257C225.379 103.349 225.361 103.42 225.349 103.467C225.343 103.491 225.338 103.509 225.335 103.521C225.333 103.527 225.332 103.531 225.332 103.534C225.331 103.536 225.331 103.537 225.331 103.538C225.331 103.538 225.331 103.538 225.33 103.538C225.33 103.539 225.33 103.539 225.815 103.663C226.299 103.787 226.299 103.787 226.299 103.787C226.299 103.786 226.299 103.786 226.299 103.786C226.3 103.785 226.3 103.784 226.3 103.782C226.301 103.779 226.302 103.774 226.304 103.768C226.307 103.756 226.312 103.738 226.318 103.714C226.33 103.666 226.348 103.595 226.371 103.502C226.418 103.317 226.487 103.045 226.572 102.699C226.744 102.006 226.987 101.016 227.27 99.8235C227.836 97.4392 228.564 94.245 229.211 91.0087C229.858 87.776 230.427 84.4871 230.672 81.9186C230.794 80.6376 230.837 79.5125 230.763 78.6549C230.726 78.2277 230.657 77.8412 230.54 77.5264C230.427 77.221 230.24 76.9062 229.913 76.7428L229.466 77.6372ZM190.687 77.5024C190.77 77.3989 190.962 77.2572 191.328 77.1057C191.682 76.9589 192.151 76.8224 192.729 76.6991C193.884 76.4528 195.417 76.2706 197.213 76.1452C200.803 75.8946 205.386 75.874 209.98 75.9949C214.572 76.1157 219.163 76.3775 222.765 76.6894C224.566 76.8453 226.115 77.0134 227.29 77.1818C227.878 77.266 228.367 77.3496 228.745 77.4306C229.137 77.5147 229.367 77.5876 229.466 77.6372L229.913 76.7428C229.689 76.631 229.349 76.5374 228.955 76.4528C228.546 76.3652 228.032 76.2779 227.432 76.1919C226.231 76.0198 224.662 75.8499 222.851 75.6931C219.228 75.3794 214.617 75.1166 210.006 74.9953C205.398 74.874 200.779 74.8938 197.143 75.1476C195.328 75.2744 193.742 75.4606 192.521 75.7211C191.91 75.8513 191.377 76.003 190.945 76.1818C190.524 76.356 190.146 76.5775 189.906 76.8776L190.687 77.5024ZM194.772 90.7921C193.454 87.7876 192.131 84.7704 191.3 82.3001C190.884 81.0638 190.6 79.9894 190.496 79.1369C190.389 78.2515 190.494 77.7431 190.687 77.5024L189.906 76.8776C189.441 77.4588 189.392 78.3374 189.503 79.2573C189.619 80.2101 189.928 81.3596 190.352 82.6191C191.201 85.1405 192.544 88.2027 193.856 91.1937L194.772 90.7921ZM198.4 104.016C198.655 103.761 198.787 103.426 198.847 103.076C198.906 102.726 198.9 102.328 198.851 101.903C198.752 101.055 198.47 100.013 198.079 98.8593C197.296 96.5476 196.036 93.6747 194.772 90.7921L193.856 91.1937C195.126 94.0904 196.366 96.9186 197.132 99.1802C197.516 100.313 197.771 101.276 197.857 102.019C197.901 102.39 197.899 102.685 197.861 102.907C197.823 103.13 197.755 103.247 197.693 103.309L198.4 104.016ZM178.497 108.005C179.878 108.523 181.649 108.683 183.535 108.612C185.429 108.54 187.479 108.231 189.44 107.782C191.401 107.333 193.284 106.74 194.847 106.092C196.393 105.451 197.681 104.735 198.4 104.016L197.693 103.309C197.12 103.882 195.986 104.538 194.464 105.168C192.96 105.792 191.13 106.369 189.216 106.807C187.302 107.246 185.316 107.543 183.497 107.612C181.67 107.682 180.051 107.52 178.848 107.069L178.497 108.005ZM176.089 84.2925C175.593 84.2323 175.593 84.2324 175.593 84.2327C175.593 84.2328 175.593 84.2331 175.593 84.2335C175.593 84.2342 175.593 84.2353 175.593 84.2367C175.592 84.2394 175.592 84.2434 175.591 84.2487C175.59 84.2593 175.588 84.2749 175.586 84.2955C175.581 84.3365 175.574 84.3972 175.565 84.4762C175.547 84.6342 175.522 84.8656 175.491 85.1604C175.43 85.7501 175.349 86.594 175.268 87.6123C175.106 89.6479 174.944 92.386 174.944 95.1883C174.944 97.9848 175.105 100.871 175.6 103.192C175.848 104.352 176.184 105.396 176.641 106.224C177.096 107.05 177.698 107.706 178.497 108.005L178.848 107.069C178.355 106.884 177.908 106.45 177.516 105.74C177.125 105.032 176.815 104.093 176.578 102.983C176.105 100.765 175.944 97.9608 175.944 95.1883C175.944 92.4215 176.104 89.7117 176.265 87.6917C176.345 86.6822 176.426 85.8463 176.486 85.2631C176.516 84.9716 176.541 84.7433 176.559 84.5883C176.567 84.5107 176.574 84.4515 176.579 84.4118C176.581 84.392 176.583 84.377 176.584 84.3671C176.585 84.3621 176.585 84.3584 176.585 84.356C176.586 84.3548 176.586 84.3539 176.586 84.3534C176.586 84.3531 176.586 84.3529 176.586 84.3528C176.586 84.3527 176.586 84.3526 176.089 84.2925ZM186.1 1.38283C195.062 8.91124 199.66 19.7757 198.434 33.6423C197.206 47.5321 190.13 64.4473 175.687 83.9953L176.492 84.5896C190.994 64.9609 198.18 47.8718 199.43 33.7304C200.682 19.5658 195.975 8.37246 186.744 0.617168L186.1 1.38283ZM144.566 11.8164L186.541 1.48551L186.302 0.514488L144.327 10.8453L144.566 11.8164ZM149.232 82.6371C155.305 51.9978 159.442 31.2643 144.852 11.0383L144.041 11.6234C158.334 31.4368 154.345 51.7018 148.251 82.4427L149.232 82.6371ZM146.875 94.7164C147.67 90.5169 148.467 86.4975 149.232 82.6371L148.251 82.4427C147.486 86.3026 146.689 90.3259 145.892 94.5302L146.875 94.7164ZM166.687 132.307C157.735 126.106 152.594 120.883 149.781 115.147C146.968 109.415 146.448 103.105 146.883 94.649L145.884 94.5976C145.447 103.105 145.957 109.623 148.883 115.587C151.807 121.549 157.112 126.891 166.118 133.129L166.687 132.307ZM206.664 118.247C202.687 124.56 198.352 128.278 192.195 130.315C186 132.364 177.922 132.727 166.425 132.219L166.381 133.218C177.886 133.726 186.125 133.376 192.509 131.264C198.931 129.14 203.437 125.247 207.51 118.78L206.664 118.247ZM226.117 132.32L207.389 118.115L206.785 118.912L225.513 133.117L226.117 132.32ZM266.721 118.248C262.728 124.623 258.868 128.805 252.888 131.065C246.877 133.337 238.654 133.694 225.872 132.222L225.758 133.215C238.57 134.691 246.995 134.361 253.241 132.001C259.518 129.629 263.526 125.234 267.569 118.779L266.721 118.248ZM271.817 79.8491C273.256 89.1621 273.822 95.9849 273.112 101.865C272.405 107.727 270.427 112.678 266.729 118.236L267.561 118.79C271.33 113.126 273.376 108.028 274.105 101.985C274.832 95.9613 274.247 89.025 272.805 79.6964L271.817 79.8491ZM264.721 49.5398L271.824 79.8867L272.798 79.6588L265.694 49.3119L264.721 49.5398ZM273.116 13.1548L264.72 49.3128L265.695 49.5389L274.09 13.381L273.116 13.1548ZM492.549 105.746C483.607 105.286 476.69 104.35 469.858 102.078C463.025 99.8061 456.247 96.1895 447.599 90.3352L447.038 91.1633C455.728 97.0451 462.59 100.715 469.542 103.027C476.496 105.339 483.513 106.283 492.497 106.745L492.549 105.746ZM473.15 111.265C480.307 111.265 485.21 110.127 488.337 108.975C489.9 108.399 491.018 107.82 491.751 107.38C492.118 107.161 492.387 106.976 492.569 106.843C492.659 106.777 492.727 106.724 492.774 106.686C492.798 106.668 492.816 106.653 492.829 106.642C492.835 106.636 492.841 106.632 492.845 106.629C492.846 106.627 492.848 106.626 492.849 106.624C492.85 106.624 492.851 106.623 492.851 106.623C492.851 106.623 492.852 106.622 492.852 106.622C492.852 106.622 492.852 106.622 492.523 106.246C492.194 105.869 492.194 105.869 492.194 105.869C492.194 105.869 492.195 105.869 492.195 105.869C492.195 105.868 492.195 105.868 492.195 105.868C492.195 105.868 492.195 105.868 492.194 105.869C492.193 105.87 492.191 105.872 492.187 105.875C492.179 105.881 492.167 105.892 492.149 105.906C492.113 105.935 492.057 105.979 491.978 106.036C491.821 106.151 491.577 106.319 491.237 106.523C490.557 106.931 489.495 107.482 487.991 108.036C484.984 109.144 480.199 110.265 473.15 110.265V111.265ZM442.747 100.739C447.068 103.402 459.807 111.265 473.15 111.265V110.265C460.129 110.265 447.617 102.566 443.272 99.8876L442.747 100.739ZM441.895 100.217C442.125 100.355 442.409 100.531 442.747 100.739L443.272 99.8876C442.935 99.6803 442.646 99.5017 442.409 99.36L441.895 100.217ZM422.779 77.19C422.385 77.4979 422.385 77.4979 422.385 77.4981C422.385 77.4983 422.385 77.4985 422.385 77.4988C422.386 77.4995 422.387 77.5004 422.388 77.5017C422.39 77.5042 422.393 77.508 422.396 77.513C422.404 77.523 422.416 77.5379 422.431 77.5575C422.462 77.5968 422.508 77.655 422.567 77.731C422.686 77.8831 422.862 78.1062 423.086 78.3909C423.534 78.9602 424.178 79.7755 424.96 80.7598C426.525 82.7284 428.646 85.3738 430.868 88.0803C433.089 90.7859 435.415 93.5562 437.389 95.773C438.376 96.8811 439.279 97.8551 440.039 98.6151C440.787 99.363 441.432 99.9397 441.895 100.217L442.409 99.36C442.065 99.1535 441.499 98.6608 440.746 97.908C440.005 97.1673 439.117 96.2093 438.136 95.108C436.175 92.9059 433.859 90.1476 431.641 87.4457C429.423 84.7446 427.306 82.1036 425.743 80.1375C424.962 79.1546 424.319 78.3405 423.871 77.7723C423.648 77.4882 423.473 77.2656 423.354 77.114C423.295 77.0382 423.249 76.9802 423.219 76.9412C423.203 76.9216 423.192 76.9069 423.184 76.897C423.18 76.892 423.177 76.8883 423.175 76.8858C423.174 76.8846 423.174 76.8837 423.173 76.883C423.173 76.8827 423.173 76.8825 423.173 76.8824C423.173 76.8822 423.173 76.8821 422.779 77.19ZM400.482 95.0192L423.084 77.5859L422.473 76.7941L399.871 94.2274L400.482 95.0192ZM371.059 100.285C378.382 101.13 383.482 101.048 387.884 100.134C392.288 99.2189 395.957 97.4776 400.414 95.0629L399.938 94.1837C395.501 96.5873 391.936 98.2705 387.681 99.1546C383.424 100.039 378.441 100.131 371.173 99.292L371.059 100.285ZM359.639 79.7415C358.985 90.2006 364.024 98.6458 371.002 100.276L371.23 99.3018C364.921 97.8285 359.999 90.0066 360.637 79.8039L359.639 79.7415ZM375.397 59.3175C370.302 62.0898 366.514 64.5486 363.927 67.6474C361.322 70.7678 359.966 74.4967 359.639 79.7415L360.637 79.8039C360.955 74.7179 362.257 71.2084 364.695 68.2883C367.151 65.3466 370.79 62.9628 375.875 60.1959L375.397 59.3175ZM389.932 83.8003C381.198 82.2302 377.066 79.7108 375.408 76.0016C374.571 74.1292 374.335 71.8965 374.521 69.2148C374.708 66.5318 375.313 63.4401 376.124 59.8674L375.149 59.646C374.337 63.2232 373.716 66.3796 373.524 69.1455C373.331 71.9126 373.565 74.3294 374.495 76.4098C376.371 80.606 380.966 83.2046 389.755 84.7846L389.932 83.8003ZM410.755 73.6607C407.577 77.8786 404.864 80.4979 401.719 82.0243C398.576 83.5493 394.943 84.0121 389.865 83.7929L389.822 84.792C394.971 85.0143 398.797 84.5537 402.155 82.9239C405.511 81.2955 408.34 78.5287 411.554 74.2625L410.755 73.6607ZM410.738 49.7032C411.341 50.6071 413.127 54.2767 413.86 58.9054C414.592 63.5256 414.263 69.0185 410.756 73.6602L411.553 74.263C415.286 69.3236 415.603 63.5172 414.848 58.749C414.094 53.9893 412.259 50.1816 411.57 49.1485L410.738 49.7032ZM380.206 42.821C386.769 42.1709 394.127 43.4456 400.021 45.1348C402.965 45.9784 405.53 46.9215 407.433 47.7703C408.385 48.195 409.164 48.5927 409.739 48.9389C410.027 49.112 410.257 49.2683 410.43 49.4047C410.608 49.5459 410.701 49.6464 410.738 49.7032L411.57 49.1485C411.447 48.9632 411.26 48.786 411.05 48.6201C410.833 48.4493 410.566 48.269 410.255 48.0821C409.634 47.7081 408.815 47.2919 407.84 46.857C405.889 45.9866 403.279 45.0281 400.297 44.1735C394.34 42.4665 386.846 41.1584 380.108 41.8258L380.206 42.821ZM341.761 64.6328C348.197 58.299 353.475 53.903 359.309 50.5616C365.142 47.2212 371.554 44.9206 380.275 42.8093L380.039 41.8374C371.266 43.9615 364.755 46.2902 358.812 49.6938C352.871 53.0964 347.523 57.5592 341.059 63.9201L341.761 64.6328ZM341.817 119.514C334.103 108.72 331.201 100.372 331.647 92.0672C332.095 83.733 335.914 75.3633 341.849 64.5164L340.971 64.0364C335.04 74.8771 331.109 83.4276 330.649 92.0136C330.186 100.63 333.218 109.201 341.003 120.095L341.817 119.514ZM311.27 94.8725C316.049 103.185 320.217 108.369 324.874 112.063C329.529 115.756 334.64 117.932 341.243 120.276L341.577 119.334C334.996 116.997 330.016 114.865 325.495 111.28C320.976 107.695 316.883 102.629 312.137 94.3741L311.27 94.8725ZM318.387 69.1712C315.181 74.151 313.364 78.0502 312.361 81.953C311.359 85.852 311.178 89.7242 311.204 94.6259L312.204 94.6207C312.178 89.7383 312.361 85.9717 313.33 82.2019C314.298 78.436 316.058 74.6365 319.228 69.7125L318.387 69.1712ZM333.81 28.7064C332.735 37.9561 331.106 44.6055 328.64 50.6654C326.173 56.731 322.86 62.2261 318.387 69.1712L319.228 69.7126C323.703 62.7625 327.061 57.2007 329.567 51.0422C332.074 44.878 333.721 38.1361 334.803 28.8219L333.81 28.7064ZM321.062 1.37693C326.072 5.74377 329.438 9.30891 331.466 13.4022C333.488 17.483 334.205 22.1403 333.807 28.7341L334.805 28.7943C335.209 22.0986 334.488 17.2494 332.362 12.9582C330.242 8.67948 326.749 5.00725 321.719 0.623072L321.062 1.37693ZM282.795 13.7446L321.542 1.47668L321.24 0.523322L282.493 12.7912L282.795 13.7446ZM292.079 24.5831L283.038 12.9609L282.249 13.5749L291.29 25.1971L292.079 24.5831ZM287.652 64.3854C291.076 49.0481 291.943 40.3055 292.185 24.8979L291.185 24.8822C290.944 40.2303 290.084 48.9045 286.676 64.1675L287.652 64.3854ZM296.627 118.245C290.285 108.302 286.998 100.363 285.812 92.1676C284.624 83.9642 285.532 75.4613 287.655 64.3704L286.673 64.1824C284.545 75.3011 283.609 83.9377 284.822 92.3109C286.036 100.692 289.395 108.767 295.784 118.782L296.627 118.245ZM360.113 143.195C353.749 143.514 342.608 141.494 330.653 137.253C318.706 133.016 306.017 126.587 296.538 118.14L295.872 118.887C305.48 127.449 318.299 133.933 330.318 138.196C342.328 142.455 353.611 144.522 360.163 144.194L360.113 143.195ZM416.629 118.145C408.425 125.655 397.504 131.761 387.01 136.071C376.511 140.384 366.493 142.877 360.113 143.195L360.163 144.194C366.698 143.867 376.834 141.332 387.39 136.996C397.951 132.659 408.986 126.497 417.304 118.882L416.629 118.145ZM423.165 125.299L417.353 118.197L416.58 118.83L422.392 125.933L423.165 125.299ZM460.275 138.677C451.881 137.987 445.632 136.86 439.964 134.793C434.298 132.727 429.185 129.712 423.075 125.213L422.482 126.019C428.636 130.549 433.834 133.622 439.622 135.733C445.407 137.842 451.754 138.98 460.193 139.673L460.275 138.677ZM499.979 126.503C493.243 131.392 487.718 134.494 481.688 136.347C475.656 138.2 469.086 138.814 460.242 138.675L460.226 139.675C469.12 139.814 475.808 139.2 481.982 137.303C488.157 135.405 493.783 132.235 500.566 127.312L499.979 126.503ZM512.69 90.794C513.591 100.809 513.011 107.442 510.926 112.706C508.844 117.964 505.237 121.917 499.944 126.53L500.601 127.284C505.93 122.64 509.684 118.559 511.856 113.075C514.025 107.597 514.592 100.78 513.686 90.7045L512.69 90.794ZM484.45 45.2867C493.391 52.9024 499.256 59.2438 503.484 66.1932C507.711 73.1418 510.319 80.7284 512.701 90.8637L513.675 90.6348C511.281 80.4517 508.643 72.7502 504.338 65.6735C500.034 58.5976 494.081 52.1767 485.098 44.5255L484.45 45.2867ZM437.945 47.878C445.227 42.0039 451.335 38.9013 458.353 38.477C465.392 38.0515 473.425 40.3146 484.567 45.3616L484.98 44.4506C473.803 39.3881 465.585 37.038 458.292 37.4789C450.979 37.921 444.675 41.1645 437.318 47.0997L437.945 47.878ZM447.698 90.4234C441.296 82.9739 437.349 77.0058 435.764 70.5617C434.182 64.1285 434.939 57.1495 438.106 47.6469L437.157 47.3307C433.961 56.9206 433.148 64.1083 434.793 70.8005C436.436 77.4818 440.514 83.5977 446.939 91.0751L447.698 90.4234ZM503.781 19.9557C498.128 16.1478 492.428 13.2116 487.388 11.7992C482.367 10.3923 477.876 10.4653 474.78 12.8732L475.394 13.6626C478.11 11.5507 482.198 11.3835 487.118 12.7621C492.018 14.1351 497.618 17.01 503.222 20.785L503.781 19.9557ZM515.416 45.313C517.889 43.5471 519.221 39.8787 517.807 35.3438C516.396 30.815 512.255 25.4051 503.772 19.9498L503.231 20.7909C511.605 26.1756 515.536 31.4194 516.853 35.6414C518.167 39.8573 516.883 43.0367 514.835 44.4992L515.416 45.313ZM486.434 39.5113C492.169 43.3257 498.206 45.6122 503.395 46.5366C505.989 46.9987 508.382 47.1223 510.425 46.9201C512.462 46.7185 514.189 46.1896 515.416 45.313L514.835 44.4992C513.802 45.2368 512.267 45.7329 510.327 45.9249C508.394 46.1163 506.095 46.0019 503.57 45.5521C498.521 44.6526 492.612 42.4193 486.988 38.6787L486.434 39.5113ZM474.78 12.8732C473.186 14.1127 472.443 15.9018 472.389 17.9736C472.336 20.0311 472.959 22.3818 474.1 24.825C476.383 29.7143 480.799 35.1 486.403 39.4887L487.019 38.7013C481.512 34.389 477.21 29.121 475.006 24.4019C473.903 22.041 473.341 19.8488 473.389 17.9995C473.436 16.1646 474.082 14.683 475.394 13.6626L474.78 12.8732ZM126.123 136.886L144.851 111.059L144.041 110.472L125.314 136.299L126.123 136.886ZM99.7115 127.375L125.543 137.061L125.894 136.124L100.063 126.439L99.7115 127.375ZM32.0697 137.092C67.4358 137.809 81.6483 135.318 100.085 127.366L99.689 126.448C81.4351 134.321 67.3824 136.807 32.0899 136.092L32.0697 137.092ZM0.584875 113.297C0.083188 118.146 1.84716 122.076 4.74057 125.218C7.62231 128.347 11.6283 130.702 15.6554 132.451C19.6878 134.202 23.775 135.36 26.85 136.08C28.3886 136.441 29.6763 136.692 30.5805 136.854C31.0327 136.935 31.3891 136.993 31.6331 137.031C31.7551 137.05 31.8491 137.064 31.9129 137.074C31.9448 137.078 31.9692 137.082 31.9857 137.084C31.994 137.085 32.0004 137.086 32.0047 137.087C32.0069 137.087 32.0086 137.087 32.0098 137.087C32.0104 137.088 32.0109 137.088 32.0112 137.088C32.0116 137.088 32.0118 137.088 32.0798 136.592C32.1478 136.097 32.1478 136.097 32.1477 136.097C32.1475 136.097 32.1472 136.097 32.1468 136.097C32.146 136.097 32.1447 136.097 32.1429 136.096C32.1393 136.096 32.1337 136.095 32.1261 136.094C32.1111 136.092 32.0882 136.089 32.0579 136.084C31.9972 136.075 31.9064 136.062 31.7877 136.043C31.5503 136.006 31.201 135.949 30.7563 135.869C29.867 135.711 28.5969 135.463 27.0781 135.107C24.0383 134.395 20.013 133.253 16.0538 131.533C12.0893 129.812 8.22486 127.525 5.47616 124.541C2.73914 121.569 1.11269 117.912 1.57957 113.399L0.584875 113.297ZM8.32231 94.8028C4.84627 100.107 1.4077 105.343 0.584875 113.297L1.57957 113.399C2.37487 105.712 5.68116 100.657 9.15869 95.3509L8.32231 94.8028ZM16.7288 64.3212C17.4289 72.1054 16.5255 77.8839 14.8593 82.6237C13.19 87.3721 10.7486 91.1007 8.32231 94.8028L9.15869 95.3509C11.58 91.6564 14.0877 87.8337 15.8027 82.9554C17.5206 78.0686 18.4365 72.1452 17.7248 64.2317L16.7288 64.3212ZM66.9521 63.7764H17.2268V64.7764H66.9521V63.7764ZM35.5939 104.073C50.7521 93.5478 60.6432 85.9883 65.7728 79.8769C68.3414 76.8167 69.7644 74.0647 70.0142 71.4373C70.2661 68.7877 69.3175 66.3533 67.3375 63.9579L66.5667 64.595C68.429 66.848 69.2388 69.0277 69.0187 71.3427C68.7965 73.6799 67.5172 76.2432 65.0069 79.234C59.9787 85.2245 50.2058 92.7097 35.0235 103.252L35.5939 104.073ZM48.5244 112.948L35.6087 103.263L35.0088 104.063L47.9244 113.748L48.5244 112.948ZM101.988 75.1214C98.4967 87.9164 95.1838 97.273 87.7391 103.48C80.2987 109.683 68.6325 112.816 48.2236 112.848L48.2252 113.848C68.6906 113.816 80.6594 110.685 88.3794 104.248C96.095 97.8153 99.4679 88.1562 102.953 75.3846L101.988 75.1214ZM139.926 74.753H102.47V75.753H139.926V74.753ZM131.325 105.837C138.283 92.9556 141.318 85.8984 140.424 75.2113L139.427 75.2946C140.295 85.668 137.393 92.4992 130.445 105.362L131.325 105.837ZM144.624 110.298L131.063 105.133L130.707 106.067L144.268 111.233L144.624 110.298ZM518.5 154.026V192.121H519.5V154.026H518.5ZM486.76 147.421C494.183 146.693 499.585 146.766 504.416 147.854C509.242 148.94 513.534 151.047 518.726 154.444L519.274 153.607C514.028 150.175 509.622 148.001 504.636 146.878C499.655 145.756 494.132 145.693 486.662 146.426L486.76 147.421ZM467.191 174.02C466.815 165.459 467.779 159.87 470.745 155.901C473.712 151.933 478.758 149.481 486.835 147.408L486.587 146.439C478.467 148.523 473.127 151.045 469.944 155.303C466.761 159.562 465.814 165.453 466.192 174.064L467.191 174.02ZM478.8 219.762L467.176 173.919L466.207 174.165L477.831 220.008L478.8 219.762ZM451.468 254.523C459.234 249.4 464.431 244.807 468.505 239.469C472.577 234.135 475.51 228.082 478.779 220.074L477.853 219.696C474.593 227.681 471.7 233.635 467.711 238.862C463.724 244.084 458.623 248.605 450.917 253.688L451.468 254.523ZM488.029 255.543L451.219 253.606L451.167 254.605L487.976 256.542L488.029 255.543ZM516.428 256.189L488.014 255.543L487.991 256.543L516.406 257.188L516.428 256.189ZM511.43 218.774C514.292 226.183 515.857 231.943 516.487 237.69C517.118 243.44 516.817 249.203 515.92 256.629L516.913 256.748C517.814 249.292 518.124 243.442 517.481 237.581C516.838 231.719 515.244 225.872 512.363 218.413L511.43 218.774ZM483.103 178.888C496.045 193.894 503.104 202.329 511.45 218.819L512.342 218.368C503.938 201.763 496.813 193.253 483.861 178.235L483.103 178.888ZM518.9 191.631C511.166 193.205 505.467 193.108 500.194 191.024C494.905 188.933 489.98 184.82 483.848 178.221L483.116 178.902C489.271 185.526 494.321 189.778 499.826 191.954C505.348 194.136 511.264 194.206 519.1 192.611L518.9 191.631ZM435.195 254.584C445.206 251.516 451.267 247.507 455.147 241.556C459.008 235.634 460.662 227.852 462.021 217.366L461.029 217.238C459.67 227.726 458.033 235.298 454.309 241.01C450.603 246.694 444.785 250.599 434.902 253.628L435.195 254.584ZM401.744 240.238C407.209 246.22 411.808 249.954 416.931 252.118C422.055 254.282 427.651 254.853 435.065 254.605L435.032 253.606C427.678 253.851 422.25 253.279 417.32 251.196C412.388 249.114 407.904 245.499 402.482 239.564L401.744 240.238ZM332.965 257.186C350.125 258.9 362.279 258.481 372.759 255.722C383.244 252.961 392.011 247.868 402.407 240.305L401.819 239.497C391.465 247.028 382.815 252.04 372.505 254.755C362.189 257.471 350.17 257.899 333.064 256.191L332.965 257.186ZM279.112 231.259C288.857 238.672 296.635 243.996 304.818 248.045C313.006 252.096 321.58 254.861 332.914 257.178L333.115 256.199C321.841 253.894 313.353 251.152 305.262 247.149C297.165 243.143 289.447 237.864 279.717 230.463L279.112 231.259ZM243.336 248.142C250.848 246.835 259.95 242.604 267.14 238.727C270.742 236.784 273.879 234.923 276.115 233.547C277.233 232.859 278.126 232.292 278.74 231.897C279.047 231.7 279.285 231.545 279.446 231.44C279.526 231.387 279.587 231.347 279.629 231.319C279.649 231.306 279.665 231.295 279.676 231.288C279.681 231.285 279.685 231.282 279.688 231.28C279.689 231.279 279.69 231.279 279.691 231.278C279.691 231.278 279.691 231.278 279.691 231.278C279.692 231.277 279.692 231.277 279.414 230.861C279.137 230.445 279.137 230.445 279.137 230.445C279.137 230.446 279.137 230.446 279.136 230.446C279.136 230.446 279.135 230.447 279.134 230.448C279.131 230.449 279.127 230.452 279.122 230.455C279.112 230.462 279.097 230.472 279.077 230.485C279.037 230.512 278.977 230.551 278.897 230.603C278.739 230.707 278.504 230.86 278.199 231.056C277.59 231.448 276.702 232.011 275.591 232.695C273.367 234.064 270.247 235.915 266.665 237.847C259.486 241.718 250.506 245.88 243.165 247.156L243.336 248.142ZM175.99 245.556C201.973 250.802 228.414 250.736 243.336 248.142L243.165 247.156C228.382 249.727 202.068 249.801 176.188 244.576L175.99 245.556ZM98.8142 217.945C126.948 231.593 143.292 239.522 175.998 245.558L176.18 244.575C143.612 238.564 127.369 230.686 99.2506 217.045L98.8142 217.945ZM98.8742 217.969L98.8743 217.969L99.1905 217.021L99.1904 217.021L98.8742 217.969ZM97.0854 217.106L98.8141 217.945L99.2505 217.045L97.5219 216.207L97.0854 217.106ZM95.2098 229.027L97.7929 216.759L96.8144 216.553L94.2313 228.821L95.2098 229.027ZM54.054 258.48C72.3828 257.825 86.2231 245.131 95.1568 229.169L94.2842 228.68C85.4359 244.49 71.8534 256.843 54.0184 257.48L54.054 258.48ZM0.634738 223.982C5.66225 234.041 14.4519 242.821 24.2451 249.004C34.0335 255.185 44.8818 258.807 54.054 258.48L54.0184 257.48C45.1087 257.798 34.4582 254.27 24.779 248.159C15.1048 242.051 6.45832 233.397 1.52923 223.535L0.634738 223.982ZM33.7512 202.674L0.81627 223.335L1.3477 224.182L34.2826 203.521L33.7512 202.674ZM58.371 219.421C56.1434 220.311 53.5609 219.814 50.8613 218.45C48.1692 217.089 45.4453 214.907 42.9988 212.581C40.5563 210.259 38.4111 207.814 36.8752 205.947C36.1077 205.015 35.4935 204.227 35.0716 203.674C34.8607 203.398 34.6979 203.18 34.5882 203.031C34.5333 202.957 34.4917 202.9 34.4639 202.862C34.4501 202.843 34.4397 202.829 34.4328 202.819C34.4294 202.814 34.4268 202.811 34.4252 202.808C34.4243 202.807 34.4237 202.807 34.4234 202.806C34.4232 202.806 34.4231 202.806 34.423 202.805C34.4229 202.805 34.4229 202.805 34.0169 203.097C33.6109 203.389 33.611 203.389 33.6112 203.389C33.6114 203.39 33.6116 203.39 33.6118 203.39C33.6124 203.391 33.6131 203.392 33.6141 203.393C33.6161 203.396 33.6189 203.4 33.6227 203.405C33.6302 203.416 33.6412 203.431 33.6557 203.451C33.6848 203.491 33.7277 203.549 33.784 203.626C33.8965 203.778 34.0623 204 34.2765 204.281C34.7047 204.842 35.3266 205.639 36.1029 206.583C37.6547 208.469 39.8282 210.947 42.3098 213.306C44.7874 215.662 47.593 217.919 50.4102 219.342C53.2199 220.762 56.1266 221.395 58.7423 220.349L58.371 219.421ZM61.7856 199.223C61.3189 199.403 61.3189 199.403 61.3189 199.403C61.3189 199.403 61.319 199.403 61.319 199.403C61.3191 199.403 61.3194 199.404 61.3197 199.405C61.3203 199.406 61.3214 199.409 61.3228 199.413C61.3255 199.42 61.3298 199.431 61.3355 199.447C61.3469 199.477 61.3638 199.523 61.3857 199.583C61.4295 199.704 61.4929 199.883 61.5705 200.112C61.7257 200.571 61.9373 201.233 62.1615 202.041C62.6106 203.657 63.1072 205.845 63.3055 208.144C63.5043 210.449 63.3997 212.83 62.6769 214.854C61.9604 216.86 60.639 218.514 58.371 219.421L58.7423 220.349C61.3178 219.319 62.8217 217.421 63.6187 215.19C64.4094 212.977 64.5067 210.434 64.3018 208.058C64.0965 205.677 63.5841 203.425 63.125 201.773C62.8952 200.946 62.678 200.266 62.5178 199.792C62.4378 199.555 62.3719 199.369 62.3258 199.242C62.3027 199.179 62.2846 199.13 62.2721 199.096C62.2659 199.08 62.2611 199.067 62.2577 199.058C62.2561 199.054 62.2547 199.05 62.2538 199.048C62.2534 199.047 62.253 199.046 62.2528 199.045C62.2526 199.045 62.2525 199.044 62.2524 199.044C62.2523 199.044 62.2523 199.044 61.7856 199.223ZM48.4498 179.478L61.3655 199.494L62.2057 198.952L49.2901 178.936L48.4498 179.478ZM81.1039 157.403C80.2841 157.494 79.1673 157.923 77.8831 158.552C76.5828 159.188 75.0567 160.057 73.4001 161.075C70.0862 163.112 66.2209 165.763 62.5444 168.389C58.8666 171.015 55.3714 173.621 52.7961 175.57C51.5083 176.544 50.4502 177.355 49.7139 177.922C49.3458 178.205 49.0581 178.428 48.8623 178.58C48.7644 178.656 48.6895 178.714 48.639 178.753C48.6138 178.773 48.5947 178.788 48.5818 178.798C48.5754 178.803 48.5706 178.807 48.5673 178.809C48.5657 178.81 48.5644 178.811 48.5636 178.812C48.5632 178.812 48.5629 178.813 48.5627 178.813C48.5624 178.813 48.5623 178.813 48.8699 179.207C49.1775 179.601 49.1776 179.601 49.1778 179.601C49.178 179.601 49.1783 179.601 49.1787 179.6C49.1795 179.6 49.1806 179.599 49.1822 179.598C49.1854 179.595 49.1901 179.591 49.1965 179.587C49.2091 179.577 49.2281 179.562 49.2531 179.542C49.3032 179.504 49.3777 179.446 49.4751 179.37C49.67 179.219 49.9568 178.997 50.324 178.714C51.0584 178.149 52.1143 177.34 53.3995 176.367C55.9703 174.422 59.4576 171.822 63.1256 169.202C66.7949 166.582 70.6386 163.946 73.9238 161.927C75.5668 160.918 77.0627 160.067 78.3228 159.45C79.5991 158.825 80.581 158.467 81.2143 158.397L81.1039 157.403ZM118.309 180.769C109.507 174.641 101.023 168.734 94.3691 164.401C91.0431 162.234 88.165 160.455 85.9287 159.236C84.8113 158.627 83.8434 158.152 83.0536 157.838C82.2913 157.536 81.609 157.347 81.1039 157.403L81.2143 158.397C81.4477 158.371 81.9212 158.465 82.6846 158.768C83.4206 159.06 84.3485 159.514 85.4501 160.114C87.6515 161.314 90.5035 163.076 93.8233 165.239C100.461 169.562 108.931 175.459 117.737 181.589L118.309 180.769ZM162.085 209.097C157.842 207.212 151.169 203.106 143.4 197.967C135.642 192.836 126.826 186.698 118.309 180.769L117.737 181.589C126.252 187.517 135.079 193.662 142.849 198.801C150.609 203.934 157.348 208.087 161.679 210.011L162.085 209.097ZM233.307 211.062C225.37 215.823 211.939 217.286 198.234 216.561C184.549 215.836 170.73 212.939 162.085 209.097L161.679 210.011C170.47 213.918 184.42 216.831 198.181 217.559C211.921 218.287 225.613 216.844 233.821 211.92L233.307 211.062ZM260.687 176.624C260.228 176.425 260.228 176.425 260.228 176.425C260.228 176.425 260.228 176.425 260.228 176.425C260.228 176.426 260.227 176.427 260.227 176.428C260.225 176.431 260.224 176.436 260.221 176.441C260.216 176.453 260.208 176.471 260.198 176.494C260.177 176.541 260.146 176.611 260.104 176.704C260.02 176.889 259.896 177.162 259.731 177.513C259.401 178.216 258.912 179.233 258.274 180.483C256.998 182.985 255.128 186.421 252.757 190.158C248.006 197.647 241.276 206.281 233.307 211.062L233.821 211.92C241.996 207.015 248.828 198.217 253.602 190.694C255.993 186.925 257.878 183.46 259.165 180.938C259.808 179.676 260.302 178.65 260.636 177.938C260.803 177.582 260.93 177.304 261.015 177.115C261.058 177.021 261.09 176.949 261.112 176.9C261.123 176.875 261.131 176.857 261.136 176.844C261.139 176.838 261.141 176.833 261.143 176.83C261.143 176.828 261.144 176.827 261.144 176.826C261.145 176.825 261.145 176.825 261.145 176.825C261.145 176.824 261.145 176.824 260.687 176.624ZM303.308 176.124H260.687V177.124H303.308V176.124ZM308.969 209.478C307.231 198.2 305.94 189.967 305.082 184.553C304.654 181.846 304.334 179.844 304.121 178.519C304.014 177.856 303.935 177.362 303.882 177.034C303.855 176.87 303.835 176.748 303.822 176.666C303.815 176.625 303.81 176.595 303.807 176.575C303.805 176.564 303.804 176.557 303.803 176.552C303.803 176.549 303.802 176.547 303.802 176.546C303.802 176.545 303.802 176.545 303.802 176.544C303.802 176.544 303.802 176.544 303.802 176.544C303.802 176.544 303.802 176.544 303.308 176.624C302.815 176.705 302.815 176.705 302.815 176.705C302.815 176.705 302.815 176.705 302.815 176.705C302.815 176.706 302.815 176.706 302.815 176.707C302.815 176.708 302.816 176.71 302.816 176.712C302.817 176.717 302.818 176.725 302.82 176.735C302.823 176.755 302.828 176.786 302.835 176.827C302.848 176.908 302.868 177.03 302.894 177.194C302.947 177.522 303.027 178.015 303.133 178.677C303.346 180.002 303.666 182.003 304.095 184.71C304.952 190.122 306.243 198.354 307.981 209.63L308.969 209.478ZM333.014 235.381C333.091 234.887 333.091 234.887 333.091 234.887C333.091 234.887 333.091 234.887 333.091 234.887C333.091 234.887 333.09 234.887 333.089 234.887C333.087 234.886 333.084 234.886 333.08 234.885C333.071 234.884 333.057 234.881 333.039 234.878C333.002 234.872 332.945 234.862 332.87 234.848C332.721 234.819 332.499 234.774 332.214 234.709C331.644 234.578 330.822 234.366 329.823 234.042C327.824 233.392 325.123 232.295 322.317 230.504C316.713 226.928 310.68 220.586 308.969 209.478L307.981 209.63C309.744 221.076 315.981 227.648 321.779 231.347C324.673 233.193 327.455 234.324 329.514 234.993C330.544 235.328 331.395 235.547 331.991 235.684C332.289 235.752 332.523 235.799 332.684 235.83C332.764 235.845 332.826 235.856 332.869 235.864C332.89 235.867 332.907 235.87 332.918 235.872C332.924 235.873 332.929 235.874 332.932 235.874C332.933 235.875 332.935 235.875 332.936 235.875C332.936 235.875 332.937 235.875 332.937 235.875C332.937 235.875 332.938 235.875 333.014 235.381ZM320.891 211.52C321.156 216.156 321.936 219.828 323.745 223.544C325.548 227.248 328.36 230.966 332.643 235.716L333.386 235.046C329.122 230.318 326.385 226.683 324.644 223.106C322.908 219.541 322.149 216.007 321.89 211.462L320.891 211.52ZM336.54 179.495C330.46 185.432 326.7 190.188 324.385 195.095C322.068 200.007 321.218 205.03 320.891 211.466L321.89 211.516C322.214 205.143 323.051 200.266 325.29 195.521C327.531 190.77 331.195 186.112 337.239 180.211L336.54 179.495ZM391.9 165.162C382.977 162.979 375.556 162.377 367.143 164.426C358.75 166.471 349.407 171.145 336.617 179.433L337.161 180.272C349.924 172.001 359.153 167.402 367.38 165.398C375.587 163.399 382.835 163.974 391.662 166.134L391.9 165.162ZM407.128 182.357C406.434 178.012 405.046 174.502 402.601 171.676C400.158 168.853 396.698 166.757 391.939 165.173L391.623 166.122C396.272 167.669 399.555 169.684 401.845 172.331C404.133 174.976 405.467 178.294 406.14 182.514L407.128 182.357ZM395.904 202.239C401.415 199.074 404.607 196.313 406.218 193.197C407.837 190.067 407.815 186.667 407.128 182.357L406.14 182.514C406.819 186.768 406.797 189.901 405.33 192.738C403.855 195.59 400.874 198.232 395.406 201.372L395.904 202.239ZM370.909 204.198C374.498 205.826 377.969 206.952 381.95 206.85C385.931 206.747 390.368 205.419 395.904 202.239L395.406 201.372C389.964 204.498 385.69 205.753 381.924 205.85C378.16 205.947 374.85 204.888 371.322 203.288L370.909 204.198ZM366.113 179.72C364.413 185.869 363.742 191.118 364.424 195.262C365.11 199.438 367.176 202.505 370.909 204.198L371.322 203.288C367.94 201.753 366.052 198.999 365.41 195.1C364.764 191.168 365.391 186.085 367.077 179.986L366.113 179.72ZM350.93 197.428C352.413 192.427 356.357 188.147 359.988 185.095C361.797 183.575 363.512 182.372 364.774 181.549C365.405 181.138 365.923 180.823 366.281 180.61C366.461 180.504 366.6 180.424 366.694 180.37C366.741 180.344 366.777 180.324 366.801 180.311C366.812 180.304 366.821 180.299 366.827 180.296C366.83 180.294 366.832 180.293 366.833 180.293C366.834 180.292 366.834 180.292 366.835 180.292C366.835 180.292 366.835 180.292 366.835 180.292C366.835 180.292 366.835 180.292 366.595 179.853C366.356 179.414 366.355 179.414 366.355 179.414C366.355 179.414 366.355 179.414 366.355 179.414C366.354 179.415 366.353 179.415 366.352 179.416C366.351 179.417 366.348 179.418 366.344 179.42C366.338 179.424 366.327 179.429 366.314 179.437C366.288 179.451 366.25 179.473 366.201 179.501C366.101 179.557 365.957 179.64 365.772 179.75C365.402 179.969 364.873 180.292 364.229 180.711C362.941 181.55 361.191 182.777 359.345 184.329C355.666 187.422 351.538 191.859 349.971 197.144L350.93 197.428ZM356.263 219.885C356.668 219.593 356.669 219.593 356.669 219.593C356.668 219.593 356.668 219.593 356.668 219.593C356.668 219.592 356.668 219.592 356.668 219.591C356.667 219.59 356.665 219.588 356.663 219.586C356.66 219.58 356.654 219.572 356.646 219.561C356.63 219.538 356.606 219.505 356.575 219.459C356.513 219.369 356.421 219.235 356.305 219.06C356.072 218.709 355.742 218.194 355.355 217.544C354.581 216.244 353.58 214.404 352.674 212.249C350.854 207.919 349.455 202.403 350.93 197.428L349.971 197.144C348.397 202.455 349.904 208.239 351.752 212.636C352.68 214.845 353.704 216.727 354.496 218.056C354.892 218.721 355.231 219.249 355.471 219.612C355.591 219.793 355.687 219.933 355.753 220.029C355.786 220.076 355.811 220.113 355.829 220.138C355.838 220.15 355.844 220.16 355.849 220.166C355.851 220.169 355.853 220.172 355.855 220.174C355.855 220.175 355.856 220.175 355.856 220.176C355.856 220.176 355.856 220.176 355.857 220.177C355.857 220.177 355.857 220.177 356.263 219.885ZM385.21 220.689C375.914 222.835 368.717 222.512 363.856 221.659C361.425 221.233 359.577 220.674 358.341 220.225C357.723 220 357.258 219.802 356.95 219.663C356.796 219.593 356.682 219.537 356.607 219.5C356.569 219.481 356.542 219.467 356.524 219.457C356.515 219.453 356.509 219.45 356.505 219.448C356.503 219.447 356.502 219.446 356.501 219.446C356.501 219.445 356.501 219.445 356.501 219.445C356.501 219.445 356.501 219.445 356.501 219.445C356.501 219.445 356.501 219.446 356.263 219.885C356.024 220.324 356.024 220.324 356.025 220.324C356.025 220.325 356.025 220.325 356.025 220.325C356.026 220.325 356.027 220.326 356.028 220.326C356.03 220.327 356.032 220.329 356.035 220.33C356.042 220.334 356.05 220.338 356.062 220.344C356.084 220.356 356.117 220.373 356.16 220.394C356.245 220.437 356.371 220.498 356.536 220.573C356.867 220.723 357.355 220.93 357.999 221.165C359.286 221.633 361.191 222.207 363.684 222.644C368.671 223.519 376.004 223.841 385.435 221.663L385.21 220.689ZM408.876 204.059C404.895 209.148 398.204 217.689 385.21 220.689L385.435 221.663C398.794 218.579 405.67 209.781 409.664 204.675L408.876 204.059ZM412.994 200.024C412.654 200.092 412.331 200.269 412.028 200.494C411.723 200.722 411.409 201.02 411.086 201.366C410.443 202.056 409.711 202.992 408.876 204.059L409.664 204.675C410.509 203.595 411.21 202.699 411.818 202.048C412.12 201.724 412.387 201.473 412.626 201.296C412.866 201.117 413.051 201.033 413.19 201.005L412.994 200.024ZM425.588 203.297C419.212 200.062 416.4 199.343 412.994 200.024L413.19 201.005C416.241 200.395 418.788 200.967 425.135 204.189L425.588 203.297ZM445.877 230.804C444.06 214.986 432.005 206.554 425.588 203.297L425.135 204.189C431.441 207.389 443.124 215.599 444.884 230.918L445.877 230.804ZM444.883 209.598C445.571 217.355 445.57 222.659 445.399 226.015C445.314 227.693 445.185 228.884 445.08 229.651C445.027 230.035 444.979 230.312 444.946 230.492C444.929 230.582 444.916 230.647 444.907 230.689C444.902 230.71 444.899 230.725 444.897 230.734C444.896 230.739 444.895 230.742 444.895 230.744C444.895 230.745 444.894 230.745 444.894 230.745C444.894 230.745 444.894 230.745 444.894 230.745C444.894 230.745 444.894 230.745 444.894 230.745C444.895 230.745 444.895 230.745 445.381 230.861C445.867 230.978 445.867 230.978 445.867 230.978C445.867 230.977 445.867 230.977 445.867 230.977C445.867 230.977 445.867 230.976 445.868 230.975C445.868 230.974 445.868 230.973 445.869 230.971C445.87 230.967 445.871 230.961 445.872 230.955C445.875 230.941 445.88 230.922 445.885 230.897C445.896 230.847 445.911 230.773 445.929 230.676C445.965 230.48 446.015 230.186 446.07 229.788C446.18 228.99 446.311 227.77 446.398 226.066C446.572 222.657 446.571 217.307 445.879 209.51L444.883 209.598ZM421.487 181.79C421.248 182.229 421.248 182.229 421.248 182.229C421.249 182.229 421.249 182.23 421.249 182.23C421.25 182.23 421.25 182.23 421.252 182.231C421.254 182.232 421.258 182.235 421.263 182.237C421.273 182.243 421.289 182.251 421.309 182.263C421.351 182.286 421.413 182.32 421.494 182.366C421.657 182.458 421.897 182.595 422.203 182.776C422.816 183.137 423.694 183.67 424.753 184.36C426.872 185.739 429.711 187.738 432.59 190.218C438.375 195.201 444.211 202.029 444.883 209.598L445.879 209.51C445.17 201.525 439.059 194.471 433.242 189.46C430.32 186.944 427.444 184.918 425.299 183.522C424.226 182.823 423.335 182.282 422.711 181.914C422.399 181.73 422.153 181.59 421.986 181.495C421.902 181.448 421.837 181.412 421.793 181.388C421.771 181.376 421.755 181.366 421.743 181.36C421.737 181.357 421.733 181.355 421.73 181.353C421.729 181.352 421.727 181.352 421.727 181.351C421.726 181.351 421.726 181.351 421.726 181.351C421.725 181.35 421.725 181.35 421.487 181.79ZM403.753 151.086C405.126 157.819 406.076 162.493 408.393 167.03C410.714 171.574 414.389 175.948 421.148 182.158L421.825 181.422C415.096 175.24 411.524 170.961 409.284 166.575C407.04 162.182 406.112 157.65 404.733 150.887L403.753 151.086ZM402.916 147.026C403.218 148.464 403.493 149.813 403.753 151.086L404.733 150.887C404.473 149.613 404.197 148.262 403.894 146.82L402.916 147.026ZM460.234 146.423H403.405V147.423H460.234V146.423ZM462.025 217.293L460.734 146.914L459.734 146.932L461.025 217.311L462.025 217.293ZM69.6979 37.5C66.6812 37.4989 62.699 38.0413 59.4548 39.1886C57.8339 39.7618 56.3648 40.4972 55.292 41.417C54.2148 42.3407 53.5 43.4859 53.5 44.8571H54.5C54.5 43.8712 55.0049 42.9805 55.943 42.1762C56.8854 41.3681 58.2271 40.6834 59.7882 40.1313C62.9079 39.0281 66.7745 38.499 69.6975 38.5L69.6979 37.5ZM85.4691 44.8123C85.3483 43.4691 84.623 42.3415 83.5701 41.4208C82.5207 40.5032 81.121 39.7674 79.5771 39.1929C76.4888 38.0438 72.7159 37.5011 69.6979 37.5L69.6975 38.5C72.6192 38.501 76.2709 39.0297 79.2283 40.1301C80.7073 40.6804 81.9858 41.3638 82.9118 42.1736C83.8344 42.9803 84.3819 43.8881 84.4732 44.902L85.4691 44.8123ZM71.3946 53.5C76.3181 53.5011 79.9303 52.6386 82.2737 51.1165C84.65 49.5731 85.6986 47.3615 85.4691 44.8123L84.4732 44.902C84.668 47.067 83.8073 48.928 81.729 50.2779C79.6176 51.6493 76.2295 52.5011 71.3949 52.5L71.3946 53.5ZM53.5 44.8571C53.5 47.5159 55.646 49.6786 58.8283 51.1494C62.0401 52.6339 66.4647 53.4989 71.3946 53.5L71.3949 52.5C66.5667 52.4989 62.294 51.6496 59.2479 50.2417C56.1724 48.8202 54.5 46.9126 54.5 44.8571H53.5ZM272.5 272.4C272.5 271.507 272.99 270.686 273.93 269.934C274.872 269.18 276.215 268.54 277.778 268.024C280.901 266.993 284.771 266.499 287.698 266.5L287.698 265.5C284.685 265.499 280.706 266.005 277.465 267.074C275.846 267.609 274.378 268.294 273.305 269.153C272.23 270.014 271.5 271.093 271.5 272.4H272.5ZM289.395 279.5C284.563 279.499 280.286 278.706 277.236 277.39C274.145 276.057 272.5 274.28 272.5 272.4H271.5C271.5 274.92 273.673 276.942 276.84 278.308C280.048 279.692 284.469 280.499 289.395 280.5L289.395 279.5ZM302.473 272.448C302.665 274.437 301.823 276.162 299.742 277.423C297.627 278.705 294.234 279.501 289.395 279.5L289.395 280.5C294.314 280.501 297.92 279.697 300.26 278.278C302.635 276.839 303.701 274.763 303.469 272.352L302.473 272.448ZM287.698 266.5C290.623 266.501 294.278 266.995 297.239 268.023C298.72 268.537 299.999 269.176 300.925 269.931C301.848 270.685 302.384 271.524 302.473 272.448L303.469 272.352C303.346 271.076 302.609 270.015 301.557 269.157C300.507 268.3 299.109 267.614 297.567 267.078C294.482 266.007 290.712 265.501 287.698 265.5L287.698 266.5ZM252.698 265.5C249.685 265.499 245.706 266.005 242.465 267.074C240.846 267.609 239.378 268.294 238.305 269.153C237.23 270.014 236.5 271.093 236.5 272.4H237.5C237.5 271.507 237.99 270.686 238.93 269.934C239.872 269.18 241.215 268.54 242.778 268.024C245.901 266.993 249.771 266.499 252.698 266.5L252.698 265.5ZM268.469 272.352C268.346 271.076 267.609 270.015 266.557 269.157C265.507 268.3 264.109 267.614 262.567 267.078C259.482 266.007 255.712 265.501 252.698 265.5L252.698 266.5C255.623 266.501 259.278 266.995 262.239 268.023C263.72 268.537 264.999 269.176 265.925 269.931C266.848 270.685 267.384 271.524 267.473 272.448L268.469 272.352ZM254.395 280.5C259.314 280.501 262.92 279.697 265.261 278.278C267.635 276.839 268.701 274.763 268.469 272.352L267.473 272.448C267.665 274.437 266.823 276.162 264.742 277.423C262.627 278.705 259.234 279.501 254.395 279.5L254.395 280.5ZM236.5 272.4C236.5 274.92 238.673 276.942 241.84 278.308C245.048 279.692 249.469 280.499 254.395 280.5L254.395 279.5C249.563 279.499 245.286 278.706 242.236 277.39C239.145 276.057 237.5 274.28 237.5 272.4H236.5ZM89.5 44.8571C89.5 43.8712 90.0049 42.9805 90.943 42.1762C91.8854 41.3681 93.2271 40.6834 94.7882 40.1313C97.9079 39.0281 101.775 38.499 104.698 38.5L104.698 37.5C101.681 37.4989 97.699 38.0413 94.4548 39.1886C92.8339 39.7618 91.3648 40.4972 90.292 41.417C89.2148 42.3407 88.5 43.4859 88.5 44.8571H89.5ZM106.395 52.5C101.567 52.4989 97.294 51.6496 94.2479 50.2417C91.1724 48.8202 89.5 46.9126 89.5 44.8571H88.5C88.5 47.5159 90.646 49.6786 93.8283 51.1494C97.0401 52.6339 101.465 53.4989 106.395 53.5L106.395 52.5ZM119.473 44.902C119.668 47.067 118.807 48.928 116.729 50.2779C114.618 51.6493 111.229 52.5011 106.395 52.5L106.395 53.5C111.318 53.5011 114.93 52.6386 117.274 51.1165C119.65 49.5731 120.699 47.3615 120.469 44.8123L119.473 44.902ZM104.698 38.5C107.619 38.501 111.271 39.0297 114.228 40.1301C115.707 40.6804 116.986 41.3638 117.912 42.1736C118.834 42.9803 119.382 43.8881 119.473 44.902L120.469 44.8123C120.348 43.4691 119.623 42.3415 118.57 41.4208C117.521 40.5032 116.121 39.7674 114.577 39.1929C111.489 38.0438 107.716 37.5011 104.698 37.5L104.698 38.5ZM229.698 141.5C226.685 141.499 222.706 142.005 219.465 143.074C217.846 143.609 216.378 144.294 215.305 145.153C214.23 146.014 213.5 147.093 213.5 148.4H214.5C214.5 147.507 214.99 146.686 215.93 145.934C216.872 145.18 218.215 144.54 219.778 144.024C222.901 142.993 226.771 142.499 229.698 142.5L229.698 141.5ZM245.469 148.352C245.346 147.076 244.609 146.015 243.557 145.157C242.507 144.3 241.109 143.614 239.567 143.078C236.482 142.007 232.712 141.501 229.698 141.5L229.698 142.5C232.623 142.501 236.278 142.995 239.239 144.023C240.72 144.537 241.999 145.176 242.925 145.931C243.848 146.685 244.384 147.524 244.473 148.448L245.469 148.352ZM231.395 156.5C236.314 156.501 239.92 155.697 242.261 154.278C244.635 152.839 245.701 150.763 245.469 148.352L244.473 148.448C244.665 150.437 243.823 152.162 241.742 153.423C239.627 154.705 236.234 155.501 231.395 155.5L231.395 156.5ZM213.5 148.4C213.5 150.92 215.673 152.942 218.84 154.308C222.048 155.692 226.469 156.499 231.395 156.5L231.395 155.5C226.563 155.499 222.286 154.706 219.236 153.39C216.145 152.057 214.5 150.28 214.5 148.4H213.5ZM181.5 148.4C181.5 147.507 181.99 146.686 182.93 145.934C183.872 145.18 185.215 144.54 186.778 144.024C189.901 142.993 193.771 142.499 196.698 142.5L196.698 141.5C193.685 141.499 189.706 142.005 186.465 143.074C184.846 143.609 183.378 144.294 182.305 145.153C181.23 146.014 180.5 147.093 180.5 148.4H181.5ZM198.395 155.5C193.563 155.499 189.286 154.706 186.236 153.39C183.145 152.057 181.5 150.28 181.5 148.4H180.5C180.5 150.92 182.673 152.942 185.84 154.308C189.048 155.692 193.469 156.499 198.395 156.5L198.395 155.5ZM211.473 148.448C211.665 150.437 210.823 152.162 208.742 153.423C206.627 154.705 203.234 155.501 198.395 155.5L198.395 156.5C203.314 156.501 206.92 155.697 209.261 154.278C211.635 152.839 212.701 150.763 212.469 148.352L211.473 148.448ZM196.698 142.5C199.623 142.501 203.278 142.995 206.239 144.023C207.72 144.537 208.999 145.176 209.925 145.931C210.848 146.685 211.384 147.524 211.473 148.448L212.469 148.352C212.346 147.076 211.609 146.015 210.557 145.157C209.507 144.3 208.109 143.614 206.567 143.078C203.482 142.007 199.712 141.501 196.698 141.5L196.698 142.5Z" fill="#34A0BD"/>
<defs>
<linearGradient id="paint0_linear_71_35" x1="260" y1="1" x2="260" y2="280" gradientUnits="userSpaceOnUse">
<stop stop-color="#34A0BD"/>
<stop offset="1" stop-color="#052B36"/>
</linearGradient>
</defs>
</svg>
