<svg width="432" height="335" viewBox="0 0 432 335" fill="none" xmlns="http://www.w3.org/2000/svg">
<g filter="url(#filter0_d_71_50)">
<path fill-rule="evenodd" clip-rule="evenodd" d="M177.775 52.8652L207.956 17.413L184.992 1C161.029 28.4684 147.38 43.4424 115.445 54.8348L117.413 81.7522L178.431 83.0652C179.979 89.6229 177.971 92.0414 172.526 95.5391L104.291 93.5696C100.349 64.4146 98.7012 55.4821 80.6712 46.3C72.6311 42.7743 67.7516 41.6854 57.7074 41.0478C43.4683 41.7315 26.8703 52.2087 26.8703 54.8348V93.5696C26.8703 93.5696 7.84314 92.2565 5.87481 95.5391C3.90649 98.8217 5.87481 152 5.87481 152H36.7119V121.8L41.9608 119.174C49.5817 123.031 54.9501 124.152 65.5807 125.083C74.2993 124.803 78.4175 122.553 85.2639 117.204C92.5931 124.378 108.268 125.75 149.563 125.083C199.582 126.959 211.237 97.5087 211.893 88.9739C212.549 80.4391 210.462 64.5137 198.115 52.8652H177.775ZM426.972 114.342V87.4569C422.812 87.2579 418.885 87.1274 415.199 87.0049H415.198L415.198 87.0049C403.56 86.6183 394.321 86.3113 387.739 84.1783C381.242 77.5208 380.433 73.7856 387.739 67.1292C394.582 64.3656 398.548 63.9266 406.702 72.3751L426.972 53.3589C416.638 39.1925 396.24 31.8234 381.2 36.3099C366.161 40.7963 356.362 51.319 351.776 67.1292V87.4569H338.698V48.113H311.889V84.1783H297.504C296.276 63.3027 291.406 53.9714 275.272 41.5557C256.711 33.9698 232.77 34.3426 232.77 36.3099V64.5063C243.938 61.9847 250.094 63.1379 260.887 69.7522C265.603 76.6399 265.739 80.5259 265.464 87.4569H221V118.932H275.272C275.717 119.161 278.089 117.387 279.991 115.966C281.392 114.918 282.538 114.062 282.465 114.342C282.293 115.001 283.119 117.828 297.504 118.38C311.889 118.932 329.82 115.171 328.236 113.79C345.895 118.234 356.208 118.484 374.277 118.923L374.662 118.932C392.97 119.376 428.133 117.619 426.972 114.342ZM399.194 290.107C388.724 292.745 377.102 292.155 365.822 286.15C358.102 290.816 348.154 294.064 338.339 292.085C328.524 290.107 323.943 286.15 323.943 286.15C323.943 286.15 318.054 291.426 313.474 292.085C308.893 292.745 240.185 296.043 224.482 292.085C208.779 288.128 196.999 280.874 195.036 276.917C193.073 272.96 194.384 187.227 195.036 185.249C195.689 183.27 225.138 183.93 227.1 185.249C227.806 185.724 227.239 194.336 226.5 205.56L226.5 205.561C225.188 225.481 223.334 253.627 227.1 259.111C232.987 267.685 303.006 265.046 306.276 261.749C308.279 259.729 308.074 246.322 307.915 235.936V235.936V235.935C307.815 229.368 307.733 224.009 308.239 223.499C309.546 222.18 335.069 221.52 337.03 223.499C338.992 225.478 337.03 259.111 337.03 259.111C337.03 259.111 337.03 261.749 344.228 261.749C351.426 261.749 352.735 259.111 352.735 259.111C352.735 259.111 349.462 226.797 351.426 223.499C353.391 220.201 374.33 208.33 386.761 208.331H386.764C399.193 208.331 400.505 208.331 410.972 216.244C421.44 224.158 428.641 237.347 426.677 259.111C424.712 280.875 409.663 287.469 399.194 290.107ZM141.263 208H168.453C168.453 208 172.432 254.623 170.443 269.07C168.453 283.517 149.049 308.195 147.895 305.843L128 287.457C129.998 284.668 131.895 282.44 133.705 280.312C137.431 275.934 140.792 271.986 143.916 264.473C148.558 253.31 141.263 208 141.263 208ZM333 315.5C333 321.299 328.075 326 322 326C315.925 326 311 321.299 311 315.5C311 309.701 315.925 305 322 305C328.075 305 333 309.701 333 315.5ZM320.264 149.247C322.552 149.247 324.655 148.486 326.311 147.213C327.967 148.486 330.07 149.247 332.358 149.247C337.701 149.247 342.033 145.096 342.033 139.975C342.033 134.855 337.701 130.704 332.358 130.704C330.07 130.704 327.967 131.465 326.311 132.737C324.655 131.465 322.552 130.704 320.264 130.704C314.921 130.704 310.589 134.855 310.589 139.975C310.589 145.096 314.921 149.247 320.264 149.247ZM124 184H95.1776V254.969C91.9346 258.559 90.5059 260.026 85.3518 260.226C65.8086 261.284 55.5175 261.565 44.0834 258.912C38.1601 256.277 36.2082 253.151 34.2576 245.77C33.4014 239.273 35.027 235.927 38.188 229.999L18.5363 210.942C8.85419 223.498 3.36189 239.855 5.43527 252.341C7.50864 264.826 28.909 285.854 38.188 288.482C47.4669 291.111 85.3518 289.797 95.1776 288.482C105.003 287.168 124 279.283 124 275.34V184ZM78.2762 196.926C77.7617 192.894 69.815 191 69.815 191C69.815 191 65.7294 198.336 61.3539 200.877C59.2402 202.104 56.2612 202.569 54.1389 202.9C52.8251 203.105 51.8396 203.259 51.591 203.511C50.9407 204.169 51.591 214.704 51.591 214.704C51.591 214.704 66.5607 213.387 67.8624 214.704C69.1641 216.021 67.8624 217.338 67.8624 217.338C67.8624 217.338 50.2893 216.021 50.2893 217.338C50.2893 217.686 50.244 218.354 50.1893 219.161C50.0365 221.415 49.8101 224.755 50.2893 225.24C50.9401 225.898 67.8624 226.557 71.1167 225.24C74.371 223.923 77.0258 221.792 78.2762 217.997C79.1603 215.313 79.319 213.378 78.2762 210.754C76.9287 207.363 71.1167 204.828 71.1167 204.828C71.1167 204.828 78.8058 201.078 78.2762 196.926Z" fill="#052B36"/>
<path d="M207.956 17.413L208.337 17.7372L208.69 17.3227L208.247 17.0063L207.956 17.413ZM177.775 52.8652L177.394 52.5411L176.693 53.3652H177.775V52.8652ZM184.992 1L185.283 0.59322L184.914 0.329348L184.616 0.6713L184.992 1ZM115.445 54.8348L115.277 54.3638L114.918 54.4917L114.946 54.8712L115.445 54.8348ZM117.413 81.7522L116.915 81.7886L116.948 82.2423L117.402 82.2521L117.413 81.7522ZM178.431 83.0652L178.918 82.9504L178.829 82.5737L178.442 82.5653L178.431 83.0652ZM172.526 95.5391L172.512 96.0389L172.666 96.0434L172.797 95.9598L172.526 95.5391ZM104.291 93.5696L103.796 93.6366L103.852 94.0571L104.277 94.0694L104.291 93.5696ZM80.6712 46.3L80.8981 45.8545L80.8852 45.8479L80.8719 45.8421L80.6712 46.3ZM57.7074 41.0478L57.739 40.5488L57.7112 40.5471L57.6834 40.5484L57.7074 41.0478ZM26.8703 93.5696L26.8358 94.0684L27.3703 94.1053V93.5696H26.8703ZM5.87481 152L5.37515 152.018L5.39298 152.5H5.87481V152ZM36.7119 152V152.5H37.2119V152H36.7119ZM36.7119 121.8L36.4882 121.353L36.2119 121.491V121.8H36.7119ZM41.9608 119.174L42.1865 118.728L41.962 118.614L41.737 118.727L41.9608 119.174ZM65.5807 125.083L65.537 125.581L65.5668 125.583L65.5967 125.582L65.5807 125.083ZM85.2639 117.204L85.6136 116.847L85.3009 116.541L84.9561 116.81L85.2639 117.204ZM149.563 125.083L149.581 124.583L149.568 124.582L149.554 124.583L149.563 125.083ZM211.893 88.9739L212.391 89.0122L211.893 88.9739ZM198.115 52.8652L198.458 52.5015L198.313 52.3652H198.115V52.8652ZM426.972 87.4569H427.472V86.9803L426.996 86.9575L426.972 87.4569ZM426.972 114.342H426.472V114.428L426.501 114.509L426.972 114.342ZM415.199 87.0049L415.215 86.5052L415.207 86.5049H415.199V87.0049ZM415.198 87.0049L415.167 87.5039L415.183 87.5049H415.198V87.0049ZM415.198 87.0049L415.229 86.5059L415.222 86.5054L415.215 86.5052L415.198 87.0049ZM387.739 84.1783L387.381 84.5275L387.468 84.6158L387.585 84.6539L387.739 84.1783ZM387.739 67.1292L387.552 66.6656L387.469 66.6992L387.402 66.7596L387.739 67.1292ZM406.702 72.3751L406.342 72.7223L406.684 73.077L407.044 72.7397L406.702 72.3751ZM426.972 53.3589L427.314 53.7235L427.636 53.4212L427.376 53.0642L426.972 53.3589ZM381.2 36.3099L381.057 35.8307L381.2 36.3099ZM351.776 67.1292L351.296 66.99L351.276 67.0582V67.1292H351.776ZM351.776 87.4569V87.9569H352.276V87.4569H351.776ZM338.698 87.4569H338.198V87.9569H338.698V87.4569ZM338.698 48.113H339.198V47.613H338.698V48.113ZM311.889 48.113V47.613H311.389V48.113H311.889ZM311.889 84.1783V84.6783H312.389V84.1783H311.889ZM297.504 84.1783L297.005 84.2076L297.032 84.6783H297.504V84.1783ZM275.272 41.5557L275.577 41.1595L275.523 41.1184L275.461 41.0929L275.272 41.5557ZM232.77 64.5063H232.27V65.1318L232.88 64.994L232.77 64.5063ZM260.887 69.7522L261.299 69.4697L261.239 69.3816L261.148 69.3259L260.887 69.7522ZM265.464 87.4569V87.9569H265.944L265.963 87.4768L265.464 87.4569ZM221 87.4569V86.9569H220.5V87.4569H221ZM221 118.932H220.5V119.432H221V118.932ZM275.272 118.932L275.501 118.488L275.393 118.432H275.272V118.932ZM279.991 115.966L280.29 116.367H280.29L279.991 115.966ZM282.465 114.342L281.981 114.216V114.216L282.465 114.342ZM297.504 118.38L297.485 118.88L297.504 118.38ZM328.236 113.79L328.358 113.305L327.908 114.167L328.236 113.79ZM374.277 118.923L374.289 118.423L374.277 118.923ZM374.662 118.932L374.674 118.432L374.662 118.932ZM365.822 286.15L366.057 285.708L365.806 285.575L365.563 285.722L365.822 286.15ZM323.943 286.15L324.27 285.771L323.937 285.484L323.61 285.777L323.943 286.15ZM224.482 292.085L224.36 292.57L224.482 292.085ZM195.036 276.917L195.484 276.695L195.036 276.917ZM227.1 185.249L226.82 185.664L227.1 185.249ZM226.5 205.56L226.998 205.598L226.999 205.593L226.5 205.56ZM226.5 205.561L226.001 205.522L226.001 205.528L226.5 205.561ZM227.1 259.111L226.687 259.394L227.1 259.111ZM306.276 261.749L305.921 261.397L306.276 261.749ZM307.915 235.936H307.415L307.415 235.944L307.915 235.936ZM307.915 235.935H308.415L308.415 235.927L307.915 235.935ZM308.239 223.499L307.884 223.147H307.884L308.239 223.499ZM337.03 223.499L337.386 223.147L337.03 223.499ZM337.03 259.111L336.531 259.082L336.53 259.096V259.111H337.03ZM352.735 259.111L353.183 259.333L353.247 259.204L353.232 259.061L352.735 259.111ZM351.426 223.499L350.997 223.243L351.426 223.499ZM386.761 208.331L386.761 208.831H386.761V208.331ZM386.764 208.331L386.764 207.831H386.764V208.331ZM410.972 216.244L410.671 216.643L410.972 216.244ZM426.677 259.111L426.179 259.066L426.677 259.111ZM168.453 208L168.952 207.957L168.913 207.5H168.453V208ZM141.263 208V207.5H140.676L140.77 208.079L141.263 208ZM170.443 269.07L169.948 269.002L170.443 269.07ZM147.895 305.843L148.344 305.623L148.303 305.539L148.234 305.476L147.895 305.843ZM128 287.457L127.594 287.165L127.336 287.524L127.661 287.824L128 287.457ZM133.705 280.312L134.086 280.636L133.705 280.312ZM143.916 264.473L144.378 264.665L143.916 264.473ZM326.311 147.213L326.616 146.817L326.311 146.583L326.007 146.817L326.311 147.213ZM326.311 132.737L326.007 133.134L326.311 133.368L326.616 133.134L326.311 132.737ZM95.1776 184V183.5H94.6776V184H95.1776ZM124 184H124.5V183.5H124V184ZM95.1776 254.969L95.5486 255.304L95.6776 255.162V254.969H95.1776ZM85.3518 260.226L85.3325 259.727L85.3248 259.727L85.3518 260.226ZM44.0834 258.912L43.8802 259.369L43.9239 259.388L43.9704 259.399L44.0834 258.912ZM34.2576 245.77L33.7619 245.835L33.7661 245.866L33.7742 245.897L34.2576 245.77ZM38.188 229.999L38.6292 230.234L38.8062 229.902L38.536 229.64L38.188 229.999ZM18.5363 210.942L18.8844 210.583L18.4824 210.193L18.1404 210.637L18.5363 210.942ZM5.43527 252.341L5.92851 252.259L5.43527 252.341ZM38.188 288.482L38.3242 288.001H38.3242L38.188 288.482ZM95.1776 288.482L95.1114 287.987H95.1113L95.1776 288.482ZM69.815 191L69.9309 190.514L69.5625 190.426L69.3782 190.757L69.815 191ZM78.2762 196.926L77.7802 196.989L78.2762 196.926ZM61.3539 200.877L61.6049 201.309L61.3539 200.877ZM54.1389 202.9L54.0618 202.406L54.1389 202.9ZM51.591 203.511L51.2352 203.159L51.2352 203.159L51.591 203.511ZM51.591 214.704L51.0919 214.735L51.1236 215.247L51.6348 215.202L51.591 214.704ZM67.8624 214.704L68.218 214.353L67.8624 214.704ZM67.8624 217.338L67.8251 217.837L68.0555 217.854L68.218 217.69L67.8624 217.338ZM50.1893 219.161L50.6881 219.195L50.1893 219.161ZM50.2893 225.24L49.9337 225.591L49.9337 225.591L50.2893 225.24ZM71.1167 225.24L71.3043 225.703L71.1167 225.24ZM78.2762 217.997L77.8013 217.84L78.2762 217.997ZM78.2762 210.754L77.8115 210.938L78.2762 210.754ZM71.1167 204.828L70.8976 204.378L69.9242 204.853L70.9168 205.286L71.1167 204.828ZM207.575 17.0889L177.394 52.5411L178.156 53.1893L208.337 17.7372L207.575 17.0889ZM184.702 1.40678L207.665 17.8198L208.247 17.0063L185.283 0.59322L184.702 1.40678ZM115.613 55.3057C147.678 43.867 161.399 28.8048 185.369 1.3287L184.616 0.6713C160.659 28.132 147.082 43.0179 115.277 54.3638L115.613 55.3057ZM117.912 81.7157L115.944 54.7983L114.946 54.8712L116.915 81.7886L117.912 81.7157ZM178.442 82.5653L117.424 81.2523L117.402 82.2521L178.421 83.5651L178.442 82.5653ZM172.797 95.9598C175.52 94.2106 177.487 92.6719 178.543 90.6843C179.613 88.6696 179.705 86.2843 178.918 82.9504L177.945 83.18C178.705 86.4039 178.567 88.5066 177.659 90.2151C176.737 91.9506 174.978 93.3699 172.256 95.1184L172.797 95.9598ZM104.277 94.0694L172.512 96.0389L172.541 95.0393L104.305 93.0698L104.277 94.0694ZM80.4442 46.7455C89.3955 51.3041 94.2113 55.7617 97.3082 62.65C100.43 69.5943 101.821 79.0325 103.796 93.6366L104.787 93.5026C102.819 78.9517 101.415 69.3462 98.2203 62.2399C95.0002 55.0777 89.9769 50.478 80.8981 45.8545L80.4442 46.7455ZM57.6757 41.5468C67.6717 42.1813 72.4924 43.2594 80.4704 46.7579L80.8719 45.8421C72.7697 42.2891 67.8315 41.1895 57.739 40.5488L57.6757 41.5468ZM27.3703 54.8348C27.3703 54.7937 27.39 54.6872 27.4954 54.5008C27.5969 54.3212 27.7576 54.1032 27.9841 53.8496C28.4369 53.3427 29.1141 52.7368 29.9902 52.0658C31.7395 50.726 34.2323 49.1642 37.1769 47.6581C43.0727 44.6422 50.7099 41.8844 57.7313 41.5472L57.6834 40.5484C50.4657 40.895 42.6844 43.7176 36.7215 46.7678C33.7366 48.2946 31.19 49.8873 29.3822 51.2719C28.4798 51.9631 27.7489 52.6119 27.2384 53.1833C26.9833 53.4688 26.7735 53.7458 26.6249 54.0086C26.4802 54.2645 26.3703 54.5476 26.3703 54.8348H27.3703ZM27.3703 93.5696V54.8348H26.3703V93.5696H27.3703ZM6.30363 95.7963C6.46241 95.5315 6.84508 95.2443 7.52483 94.9774C8.18715 94.7174 9.05323 94.5064 10.0668 94.3399C12.0915 94.0073 14.6259 93.8642 17.1189 93.8233C19.6078 93.7825 22.0378 93.8437 23.8468 93.9153C24.7509 93.9511 25.499 93.9894 26.0208 94.0188C26.2816 94.0334 26.4859 94.0459 26.6247 94.0546C26.694 94.059 26.7471 94.0625 26.7826 94.0648C26.8004 94.066 26.8138 94.0669 26.8228 94.0675C26.8272 94.0678 26.8305 94.068 26.8327 94.0682C26.8338 94.0682 26.8346 94.0683 26.8352 94.0683C26.8354 94.0684 26.8356 94.0684 26.8357 94.0684C26.8358 94.0684 26.8358 94.0684 26.8703 93.5696C26.9047 93.0707 26.9046 93.0707 26.9044 93.0707C26.9042 93.0707 26.904 93.0707 26.9037 93.0707C26.903 93.0706 26.9021 93.0706 26.9009 93.0705C26.8985 93.0703 26.8949 93.0701 26.8902 93.0698C26.8808 93.0691 26.8669 93.0682 26.8486 93.067C26.8121 93.0646 26.758 93.0611 26.6876 93.0566C26.5467 93.0477 26.3402 93.0352 26.0769 93.0203C25.5505 92.9907 24.7967 92.9521 23.8863 92.9161C22.0662 92.8441 19.6163 92.7822 17.1025 92.8234C14.5926 92.8646 12.0012 93.0087 9.90468 93.3531C8.85766 93.5252 7.91431 93.7502 7.15934 94.0466C6.42179 94.3362 5.7793 94.7261 5.44599 95.282L6.30363 95.7963ZM5.87481 152C6.37447 151.982 6.37446 151.981 6.37445 151.981C6.37443 151.981 6.37441 151.98 6.37438 151.979C6.37432 151.978 6.37423 151.975 6.37411 151.972C6.37388 151.965 6.37352 151.956 6.37306 151.943C6.37212 151.918 6.37072 151.879 6.36889 151.829C6.36523 151.729 6.35983 151.579 6.35287 151.384C6.33894 150.994 6.31877 150.421 6.29379 149.691C6.24383 148.232 6.17465 146.142 6.09778 143.624C5.94404 138.589 5.75958 131.841 5.63661 124.992C5.51362 118.141 5.45224 111.193 5.54435 105.754C5.59043 103.034 5.6748 100.699 5.80825 98.9456C5.87502 98.068 5.95347 97.3447 6.04381 96.7953C6.13855 96.2193 6.23584 95.9093 6.30363 95.7963L5.44599 95.282C5.26774 95.5793 5.14975 96.0695 5.05707 96.633C4.96 97.2233 4.8789 97.979 4.81113 98.8697C4.67546 100.653 4.59069 103.011 4.5445 105.738C4.45208 111.193 4.51372 118.155 4.63677 125.01C4.75984 131.865 4.94444 138.617 5.09825 143.655C5.17516 146.174 5.24438 148.265 5.29437 149.726C5.31937 150.456 5.33956 151.029 5.3535 151.42C5.36048 151.615 5.36589 151.765 5.36956 151.866C5.37139 151.916 5.37279 151.954 5.37373 151.98C5.3742 151.993 5.37455 152.002 5.37479 152.009C5.37491 152.012 5.375 152.014 5.37506 152.016C5.37509 152.017 5.37511 152.017 5.37513 152.018C5.37515 152.018 5.37515 152.018 5.87481 152ZM36.7119 151.5H5.87481V152.5H36.7119V151.5ZM36.2119 121.8V152H37.2119V121.8H36.2119ZM41.737 118.727L36.4882 121.353L36.9356 122.247L42.1845 119.621L41.737 118.727ZM65.6243 124.585C55.0274 123.656 49.7289 122.545 42.1865 118.728L41.735 119.62C49.4345 123.517 54.8729 124.647 65.537 125.581L65.6243 124.585ZM84.9561 116.81C81.5396 119.479 78.8408 121.345 75.9286 122.584C73.0251 123.82 69.8804 124.444 65.5646 124.583L65.5967 125.582C69.9995 125.441 73.2732 124.801 76.3201 123.504C79.3583 122.212 82.1419 120.278 85.5717 117.598L84.9561 116.81ZM149.554 124.583C128.905 124.917 114.693 124.739 104.734 123.587C94.7663 122.434 89.1557 120.314 85.6136 116.847L84.9142 117.562C88.7013 121.268 94.5928 123.421 104.619 124.581C114.652 125.741 128.926 125.916 149.571 125.583L149.554 124.583ZM211.394 88.9356C211.077 93.0718 208.06 102.448 198.907 110.558C189.771 118.654 174.485 125.517 149.581 124.583L149.544 125.582C174.659 126.525 190.21 119.601 199.571 111.307C208.914 103.027 212.053 93.4108 212.391 89.0122L211.394 88.9356ZM197.771 53.2289C209.973 64.7396 212.043 80.4936 211.394 88.9356L212.391 89.0122C213.054 80.3847 210.952 64.2878 198.458 52.5015L197.771 53.2289ZM177.775 53.3652H198.115V52.3652H177.775V53.3652ZM426.472 87.4569V114.342H427.472V87.4569H426.472ZM415.182 87.5046C418.869 87.6271 422.793 87.7575 426.948 87.9563L426.996 86.9575C422.832 86.7582 418.901 86.6277 415.215 86.5052L415.182 87.5046ZM415.198 87.5049H415.199V86.5049H415.198V87.5049ZM415.167 87.5039L415.167 87.5039L415.23 86.5059L415.229 86.5059L415.167 87.5039ZM387.585 84.6539C394.25 86.8139 403.574 87.119 415.181 87.5046L415.215 86.5052C403.546 86.1175 394.392 85.8087 387.893 83.7026L387.585 84.6539ZM387.402 66.7596C383.736 70.0997 381.953 72.8342 382.064 75.6728C382.173 78.4828 384.14 81.2056 387.381 84.5275L388.097 83.8291C384.842 80.4935 383.156 78.02 383.063 75.6339C382.971 73.2764 384.436 70.8152 388.076 67.4988L387.402 66.7596ZM407.061 72.0279C402.966 67.7843 399.848 65.6908 396.831 65.0582C393.806 64.424 390.979 65.2814 387.552 66.6656L387.926 67.5929C391.342 66.2135 393.919 65.4695 396.626 66.037C399.341 66.6061 402.284 68.5173 406.342 72.7223L407.061 72.0279ZM426.63 52.9942L406.36 72.0104L407.044 72.7397L427.314 53.7235L426.63 52.9942ZM381.343 36.789C388.737 34.5834 397.483 35.2848 405.678 38.3086C413.869 41.3316 421.467 46.6605 426.568 53.6535L427.376 53.0642C422.143 45.8909 414.375 40.452 406.024 37.3705C397.676 34.2898 388.703 33.5499 381.057 35.8307L381.343 36.789ZM352.256 67.2685C356.799 51.6048 366.483 41.2221 381.343 36.789L381.057 35.8307C365.839 40.3706 355.924 51.0332 351.296 66.99L352.256 67.2685ZM352.276 87.4569V67.1292H351.276V87.4569H352.276ZM338.698 87.9569H351.776V86.9569H338.698V87.9569ZM338.198 48.113V87.4569H339.198V48.113H338.198ZM311.889 48.613H338.698V47.613H311.889V48.613ZM312.389 84.1783V48.113H311.389V84.1783H312.389ZM297.504 84.6783H311.889V83.6783H297.504V84.6783ZM274.967 41.952C283.008 48.1397 288.195 53.5237 291.534 59.9258C294.875 66.3293 296.392 73.7997 297.005 84.2076L298.003 84.1489C297.387 73.6813 295.856 66.0482 292.421 59.4633C288.985 52.8769 283.67 47.3874 275.577 41.1595L274.967 41.952ZM233.27 36.3099C233.27 36.4634 233.157 36.4767 233.302 36.3889C233.422 36.3161 233.636 36.2296 233.963 36.1425C234.611 35.9704 235.583 35.827 236.839 35.7314C239.342 35.5407 242.889 35.5457 247.024 35.849C255.297 36.4558 265.867 38.2519 275.083 42.0186L275.461 41.0929C266.117 37.2737 255.435 35.4632 247.097 34.8517C242.927 34.5458 239.328 34.5388 236.763 34.7343C235.484 34.8317 234.441 34.9809 233.706 35.1761C233.343 35.2727 233.024 35.3885 232.784 35.5336C232.569 35.6637 232.27 35.9104 232.27 36.3099H233.27ZM233.27 64.5063V36.3099H232.27V64.5063H233.27ZM261.148 69.3259C255.731 66.0058 251.432 64.028 247.061 63.2118C242.684 62.3946 238.278 62.7499 232.66 64.0186L232.88 64.994C238.429 63.7411 242.686 63.4122 246.877 64.1948C251.074 64.9783 255.25 66.8843 260.625 70.1785L261.148 69.3259ZM265.963 87.4768C266.101 84.0133 266.14 81.2502 265.536 78.4817C264.929 75.7023 263.682 72.9496 261.299 69.4697L260.474 70.0347C262.807 73.4425 263.987 76.0766 264.559 78.695C265.133 81.3241 265.102 83.9695 264.964 87.4371L265.963 87.4768ZM221 87.9569H265.464V86.9569H221V87.9569ZM221.5 118.932V87.4569H220.5V118.932H221.5ZM275.272 118.432H221V119.432H275.272V118.432ZM279.691 115.566C278.737 116.279 277.68 117.069 276.807 117.652C276.369 117.945 275.993 118.176 275.707 118.317C275.563 118.389 275.461 118.428 275.397 118.445C275.304 118.47 275.38 118.425 275.501 118.488L275.043 119.377C275.276 119.496 275.523 119.446 275.652 119.412C275.81 119.37 275.982 119.298 276.152 119.213C276.496 119.042 276.915 118.783 277.363 118.484C278.263 117.882 279.343 117.075 280.29 116.367L279.691 115.566ZM282.948 114.468C282.963 114.413 283 114.245 282.905 114.067C282.787 113.846 282.574 113.794 282.461 113.789C282.358 113.784 282.273 113.809 282.23 113.822C282.179 113.839 282.13 113.86 282.089 113.88C281.932 113.956 281.724 114.089 281.498 114.244C281.035 114.561 280.388 115.045 279.691 115.566L280.29 116.367C280.994 115.84 281.621 115.372 282.063 115.069C282.29 114.913 282.442 114.82 282.523 114.781C282.541 114.772 282.545 114.772 282.537 114.774C282.533 114.775 282.521 114.779 282.504 114.782C282.487 114.785 282.455 114.79 282.413 114.788C282.327 114.784 282.132 114.742 282.023 114.538C281.938 114.378 281.976 114.236 281.981 114.216L282.948 114.468ZM297.523 117.88C290.348 117.605 286.62 116.763 284.724 115.942C282.792 115.106 282.963 114.413 282.948 114.468L281.981 114.216C281.794 114.93 282.292 115.979 284.327 116.86C286.397 117.755 290.274 118.603 297.485 118.88L297.523 117.88ZM327.908 114.167C327.904 114.163 327.863 114.126 327.844 114.049C327.822 113.966 327.841 113.898 327.856 113.865C327.872 113.831 327.859 113.877 327.691 113.985C327.382 114.182 326.808 114.424 325.973 114.691C324.321 115.219 321.805 115.797 318.774 116.317C312.715 117.357 304.672 118.155 297.523 117.88L297.485 118.88C304.721 119.157 312.836 118.351 318.943 117.302C321.995 116.779 324.563 116.192 326.277 115.643C327.125 115.372 327.804 115.098 328.229 114.828C328.428 114.701 328.652 114.525 328.764 114.285C328.827 114.149 328.858 113.981 328.813 113.803C328.769 113.631 328.667 113.502 328.565 113.413L327.908 114.167ZM374.289 118.423C356.225 117.985 345.959 117.735 328.358 113.305L328.114 114.275C345.83 118.734 356.19 118.984 374.265 119.423L374.289 118.423ZM374.674 118.432L374.289 118.423L374.265 119.423L374.65 119.432L374.674 118.432ZM426.501 114.509C426.502 114.512 426.5 114.508 426.5 114.5C426.5 114.497 426.5 114.494 426.501 114.491C426.501 114.488 426.502 114.487 426.501 114.487C426.501 114.488 426.489 114.521 426.428 114.58C426.3 114.705 426.044 114.863 425.62 115.035C424.784 115.376 423.476 115.704 421.774 116.012C418.381 116.626 413.544 117.138 408.082 117.534C397.162 118.326 383.81 118.654 374.674 118.432L374.649 119.432C383.821 119.654 397.205 119.326 408.154 118.531C413.626 118.134 418.506 117.62 421.952 116.996C423.669 116.686 425.061 116.343 425.997 115.961C426.459 115.773 426.858 115.557 427.126 115.297C427.408 115.022 427.603 114.627 427.443 114.175L426.501 114.509ZM365.587 286.591C376.989 292.661 388.741 293.256 399.316 290.592L399.072 289.622C388.708 292.233 377.215 291.648 366.057 285.708L365.587 286.591ZM338.24 292.575C348.222 294.587 358.299 291.281 366.081 286.578L365.563 285.722C357.905 290.35 348.087 293.54 338.438 291.595L338.24 292.575ZM323.943 286.15C323.617 286.528 323.617 286.528 323.617 286.528C323.617 286.529 323.617 286.529 323.617 286.529C323.618 286.529 323.618 286.53 323.619 286.53C323.62 286.531 323.621 286.532 323.622 286.533C323.625 286.536 323.63 286.539 323.635 286.544C323.645 286.553 323.661 286.565 323.68 286.581C323.72 286.614 323.777 286.66 323.853 286.719C324.004 286.836 324.229 287.004 324.529 287.211C325.127 287.623 326.024 288.191 327.229 288.819C329.64 290.076 333.284 291.576 338.24 292.575L338.438 291.595C333.579 290.616 330.025 289.148 327.692 287.932C326.525 287.324 325.663 286.778 325.096 286.387C324.813 286.192 324.603 286.035 324.466 285.929C324.397 285.875 324.347 285.835 324.314 285.808C324.298 285.795 324.286 285.785 324.279 285.779C324.275 285.776 324.273 285.773 324.271 285.772C324.271 285.772 324.27 285.771 324.27 285.771C324.27 285.771 324.27 285.771 324.27 285.771C324.27 285.771 324.27 285.771 324.27 285.771C324.27 285.771 324.27 285.771 323.943 286.15ZM313.545 292.58C315.958 292.233 318.657 290.689 320.709 289.283C321.745 288.573 322.635 287.884 323.266 287.373C323.582 287.117 323.834 286.906 324.007 286.758C324.093 286.683 324.16 286.625 324.206 286.585C324.229 286.565 324.246 286.55 324.258 286.539C324.264 286.534 324.269 286.53 324.272 286.527C324.273 286.525 324.275 286.524 324.276 286.524C324.276 286.523 324.276 286.523 324.277 286.523C324.277 286.523 324.277 286.522 324.277 286.522C324.277 286.522 324.277 286.522 323.943 286.15C323.61 285.777 323.61 285.777 323.61 285.777C323.61 285.777 323.61 285.777 323.61 285.777C323.61 285.778 323.609 285.778 323.609 285.778C323.609 285.778 323.608 285.779 323.606 285.78C323.604 285.783 323.6 285.786 323.595 285.791C323.584 285.8 323.568 285.814 323.547 285.833C323.504 285.871 323.44 285.927 323.356 285.998C323.189 286.141 322.945 286.347 322.637 286.596C322.021 287.095 321.152 287.766 320.144 288.458C318.106 289.854 315.57 291.278 313.403 291.59L313.545 292.58ZM224.36 292.57C228.347 293.575 235.64 294.11 244.354 294.347C253.087 294.585 263.299 294.523 273.159 294.316C292.862 293.904 311.218 292.915 313.545 292.58L313.403 291.59C311.149 291.915 292.861 292.904 273.138 293.317C263.286 293.523 253.091 293.584 244.381 293.348C235.653 293.11 228.468 292.574 224.604 291.6L224.36 292.57ZM194.588 277.139C195.129 278.229 196.304 279.48 197.945 280.791C199.599 282.112 201.773 283.529 204.368 284.94C209.559 287.764 216.469 290.581 224.36 292.57L224.604 291.6C216.792 289.631 209.961 286.844 204.846 284.062C202.288 282.67 200.166 281.285 198.569 280.009C196.959 278.723 195.925 277.584 195.484 276.695L194.588 277.139ZM194.561 185.092C194.52 185.217 194.496 185.421 194.476 185.626C194.453 185.855 194.431 186.159 194.408 186.53C194.363 187.274 194.316 188.303 194.269 189.575C194.174 192.12 194.077 195.649 193.985 199.839C193.801 208.219 193.637 219.248 193.555 230.337C193.474 241.426 193.473 252.58 193.616 261.211C193.688 265.526 193.795 269.214 193.947 271.951C194.022 273.318 194.109 274.455 194.209 275.315C194.259 275.745 194.313 276.112 194.371 276.409C194.428 276.693 194.496 276.952 194.588 277.139L195.484 276.695C195.454 276.634 195.406 276.487 195.352 276.214C195.301 275.954 195.251 275.616 195.202 275.2C195.106 274.368 195.02 273.255 194.945 271.896C194.795 269.178 194.688 265.505 194.616 261.194C194.473 252.575 194.474 241.431 194.555 230.345C194.637 219.259 194.801 208.236 194.985 199.861C195.077 195.673 195.174 192.15 195.268 189.612C195.315 188.343 195.362 187.323 195.406 186.591C195.429 186.225 195.45 185.935 195.471 185.723C195.494 185.487 195.512 185.404 195.511 185.405L194.561 185.092ZM227.379 184.834C227.173 184.696 226.862 184.6 226.539 184.523C226.194 184.441 225.76 184.365 225.255 184.294C224.245 184.151 222.918 184.024 221.389 183.915C218.33 183.698 214.434 183.553 210.582 183.512C206.732 183.471 202.913 183.533 200.012 183.73C198.564 183.828 197.328 183.961 196.426 184.136C195.978 184.223 195.589 184.324 195.292 184.446C195.144 184.507 195 184.58 194.878 184.672C194.76 184.762 194.626 184.897 194.561 185.092L195.511 185.405C195.488 185.476 195.451 185.493 195.482 185.47C195.51 185.448 195.569 185.413 195.672 185.371C195.879 185.286 196.193 185.199 196.616 185.117C197.457 184.955 198.645 184.825 200.08 184.727C202.944 184.533 206.733 184.471 210.572 184.512C214.409 184.553 218.284 184.697 221.318 184.913C222.837 185.021 224.138 185.146 225.115 185.284C225.605 185.353 226.005 185.424 226.308 185.496C226.632 185.573 226.781 185.637 226.82 185.664L227.379 184.834ZM226.999 205.593C227.368 199.984 227.695 195.017 227.842 191.394C227.915 189.584 227.943 188.097 227.908 187.028C227.89 186.496 227.856 186.051 227.8 185.715C227.772 185.548 227.736 185.391 227.686 185.256C227.642 185.141 227.557 184.954 227.379 184.834L226.82 185.664C226.73 185.603 226.724 185.539 226.749 185.608C226.768 185.657 226.791 185.744 226.814 185.88C226.859 186.15 226.891 186.544 226.908 187.061C226.942 188.092 226.915 189.548 226.842 191.354C226.697 194.961 226.371 199.913 226.001 205.527L226.999 205.593ZM226.998 205.599L226.998 205.598L226.001 205.522L226.001 205.522L226.998 205.599ZM227.512 258.828C227.094 258.22 226.728 257.253 226.426 255.94C226.126 254.637 225.897 253.035 225.731 251.187C225.398 247.491 225.317 242.856 225.395 237.757C225.552 227.56 226.342 215.557 226.999 205.593L226.001 205.528C225.345 215.485 224.552 227.515 224.395 237.742C224.317 242.854 224.397 247.529 224.735 251.276C224.903 253.149 225.137 254.801 225.451 256.165C225.763 257.519 226.163 258.631 226.687 259.394L227.512 258.828ZM305.921 261.397C305.884 261.434 305.784 261.506 305.575 261.599C305.375 261.687 305.109 261.781 304.775 261.876C304.107 262.067 303.206 262.256 302.095 262.44C299.875 262.808 296.864 263.147 293.312 263.435C286.212 264.011 276.982 264.381 267.669 264.381C258.354 264.382 248.97 264.011 241.555 263.108C237.846 262.656 234.647 262.072 232.201 261.342C230.978 260.977 229.957 260.579 229.16 260.15C228.358 259.717 227.816 259.272 227.512 258.828L226.687 259.394C227.119 260.022 227.814 260.56 228.686 261.03C229.563 261.502 230.653 261.924 231.915 262.3C234.438 263.054 237.7 263.645 241.434 264.1C248.906 265.01 258.335 265.382 267.669 265.381C277.006 265.381 286.262 265.01 293.393 264.432C296.958 264.143 300 263.801 302.258 263.427C303.386 263.24 304.33 263.043 305.05 262.838C305.41 262.735 305.723 262.627 305.981 262.513C306.229 262.402 306.463 262.27 306.631 262.101L305.921 261.397ZM307.415 235.944C307.495 241.14 307.586 247.075 307.407 251.962C307.318 254.406 307.161 256.574 306.905 258.249C306.777 259.087 306.627 259.788 306.452 260.333C306.273 260.892 306.086 261.23 305.921 261.397L306.631 262.101C306.966 261.763 307.212 261.24 307.404 260.638C307.601 260.023 307.762 259.265 307.894 258.4C308.158 256.668 308.316 254.456 308.406 251.998C308.586 247.08 308.495 241.118 308.415 235.928L307.415 235.944ZM307.415 235.936V235.936H308.415V235.936H307.415ZM307.415 235.935V235.936H308.415V235.935H307.415ZM307.884 223.147C307.783 223.249 307.723 223.373 307.686 223.467C307.645 223.569 307.614 223.684 307.587 223.803C307.535 224.041 307.495 224.341 307.463 224.688C307.399 225.385 307.365 226.324 307.35 227.439C307.319 229.672 307.365 232.662 307.415 235.943L308.415 235.927C308.365 232.641 308.319 229.668 308.35 227.453C308.365 226.344 308.398 225.436 308.459 224.78C308.489 224.45 308.524 224.197 308.564 224.018C308.584 223.929 308.602 223.87 308.616 223.834C308.633 223.791 308.632 223.812 308.594 223.851L307.884 223.147ZM337.386 223.147C337.181 222.94 336.877 222.796 336.564 222.686C336.236 222.571 335.834 222.472 335.377 222.385C334.462 222.211 333.277 222.078 331.924 221.98C329.216 221.783 325.786 221.721 322.383 221.762C318.98 221.804 315.594 221.948 312.972 222.166C311.662 222.275 310.534 222.402 309.687 222.546C309.265 222.618 308.901 222.696 308.614 222.78C308.471 222.823 308.338 222.87 308.222 222.923C308.113 222.973 307.986 223.043 307.884 223.147L308.594 223.851C308.573 223.872 308.575 223.861 308.64 223.831C308.698 223.805 308.782 223.774 308.898 223.739C309.13 223.671 309.45 223.601 309.855 223.532C310.661 223.395 311.757 223.27 313.055 223.163C315.647 222.947 319.009 222.803 322.395 222.762C325.782 222.721 329.182 222.783 331.852 222.977C333.188 223.074 334.329 223.204 335.19 223.368C335.621 223.45 335.97 223.538 336.233 223.63C336.51 223.727 336.635 223.81 336.675 223.851L337.386 223.147ZM337.03 259.111C337.53 259.14 337.53 259.14 337.53 259.14C337.53 259.139 337.53 259.139 337.53 259.138C337.53 259.137 337.53 259.136 337.53 259.134C337.53 259.13 337.531 259.124 337.531 259.115C337.532 259.099 337.533 259.075 337.535 259.043C337.539 258.979 337.544 258.884 337.551 258.761C337.565 258.514 337.585 258.151 337.61 257.689C337.66 256.765 337.729 255.442 337.806 253.849C337.959 250.663 338.143 246.393 338.266 242.061C338.389 237.731 338.45 233.33 338.358 229.885C338.312 228.164 338.227 226.669 338.09 225.537C338.022 224.972 337.939 224.484 337.837 224.098C337.743 223.739 337.61 223.373 337.386 223.147L336.675 223.851C336.674 223.849 336.681 223.857 336.695 223.879C336.709 223.901 336.726 223.933 336.746 223.977C336.785 224.067 336.828 224.19 336.87 224.352C336.955 224.676 337.031 225.113 337.097 225.657C337.229 226.743 337.312 228.201 337.358 229.912C337.45 233.329 337.389 237.708 337.266 242.033C337.144 246.356 336.96 250.619 336.807 253.801C336.73 255.392 336.661 256.712 336.612 257.635C336.587 258.096 336.567 258.458 336.553 258.705C336.546 258.828 336.54 258.922 336.537 258.986C336.535 259.018 336.534 259.042 336.533 259.058C336.532 259.066 336.532 259.072 336.532 259.076C336.532 259.078 336.531 259.079 336.531 259.08C336.531 259.081 336.531 259.081 336.531 259.081C336.531 259.082 336.531 259.082 337.03 259.111ZM344.228 261.249C340.676 261.249 339.002 260.595 338.226 260.027C337.843 259.746 337.674 259.483 337.598 259.316C337.559 259.231 337.542 259.166 337.535 259.129C337.532 259.11 337.53 259.099 337.53 259.095C337.53 259.094 337.53 259.094 337.53 259.097C337.53 259.098 337.53 259.1 337.53 259.102C337.53 259.103 337.53 259.105 337.53 259.106C337.53 259.107 337.53 259.108 337.53 259.108C337.53 259.109 337.53 259.109 337.53 259.11C337.53 259.11 337.53 259.111 337.03 259.111C336.53 259.111 336.53 259.112 336.53 259.112C336.53 259.113 336.53 259.113 336.53 259.114C336.53 259.115 336.53 259.116 336.53 259.117C336.531 259.119 336.531 259.121 336.531 259.124C336.531 259.129 336.531 259.134 336.531 259.141C336.532 259.153 336.533 259.168 336.534 259.186C336.537 259.221 336.543 259.266 336.554 259.32C336.575 259.427 336.614 259.568 336.688 259.73C336.837 260.058 337.118 260.454 337.635 260.833C338.658 261.584 340.583 262.249 344.228 262.249V261.249ZM352.735 259.111C352.287 258.889 352.287 258.888 352.287 258.888C352.287 258.888 352.288 258.887 352.288 258.887C352.288 258.886 352.288 258.886 352.289 258.885C352.289 258.884 352.29 258.884 352.29 258.883C352.291 258.882 352.291 258.881 352.291 258.881C352.291 258.881 352.29 258.883 352.287 258.887C352.282 258.896 352.271 258.914 352.253 258.94C352.218 258.991 352.155 259.074 352.056 259.179C351.858 259.387 351.512 259.684 350.944 259.99C349.808 260.6 347.768 261.249 344.228 261.249V262.249C347.886 262.249 350.1 261.579 351.418 260.87C352.077 260.516 352.508 260.154 352.78 259.868C352.916 259.725 353.012 259.601 353.076 259.509C353.108 259.462 353.132 259.423 353.15 259.394C353.158 259.379 353.165 259.366 353.171 259.356C353.174 259.351 353.176 259.347 353.178 259.343C353.179 259.341 353.18 259.339 353.181 259.337C353.181 259.337 353.181 259.336 353.182 259.335C353.182 259.335 353.182 259.334 353.182 259.334C353.183 259.334 353.183 259.333 352.735 259.111ZM350.997 223.243C350.829 223.524 350.714 223.911 350.627 224.344C350.538 224.788 350.47 225.325 350.42 225.935C350.32 227.156 350.287 228.706 350.302 230.459C350.333 233.967 350.558 238.327 350.845 242.575C351.132 246.826 351.48 250.972 351.756 254.055C351.894 255.597 352.015 256.873 352.1 257.764C352.143 258.209 352.177 258.559 352.201 258.796C352.213 258.915 352.222 259.007 352.228 259.068C352.231 259.099 352.233 259.122 352.235 259.138C352.236 259.145 352.236 259.151 352.237 259.155C352.237 259.157 352.237 259.159 352.237 259.16C352.237 259.16 352.237 259.161 352.237 259.161C352.237 259.161 352.237 259.161 352.735 259.111C353.232 259.061 353.232 259.06 353.232 259.06C353.232 259.06 353.232 259.06 353.232 259.059C353.232 259.058 353.232 259.057 353.232 259.055C353.231 259.051 353.231 259.045 353.23 259.037C353.228 259.022 353.226 258.999 353.223 258.968C353.217 258.907 353.208 258.817 353.196 258.698C353.173 258.461 353.139 258.113 353.096 257.668C353.01 256.779 352.89 255.505 352.752 253.966C352.476 250.887 352.129 246.748 351.843 242.508C351.557 238.266 351.332 233.929 351.302 230.45C351.287 228.71 351.32 227.194 351.417 226.017C351.465 225.428 351.529 224.933 351.607 224.541C351.688 224.138 351.777 223.886 351.856 223.755L350.997 223.243ZM386.761 207.831C380.427 207.83 371.998 210.842 364.952 214.227C361.418 215.925 358.21 217.728 355.756 219.318C354.53 220.112 353.486 220.857 352.683 221.513C351.894 222.156 351.291 222.749 350.997 223.243L351.856 223.755C352.053 223.424 352.534 222.925 353.315 222.288C354.081 221.663 355.093 220.939 356.3 220.157C358.713 218.593 361.885 216.81 365.385 215.128C372.408 211.754 380.664 208.83 386.761 208.831L386.761 207.831ZM386.764 207.831H386.761V208.831H386.764V207.831ZM411.274 215.846C406.049 211.896 403.038 209.862 399.752 208.843C396.473 207.826 392.95 207.831 386.764 207.831L386.764 208.831C393.006 208.831 396.354 208.836 399.455 209.798C402.549 210.757 405.428 212.68 410.671 216.643L411.274 215.846ZM427.174 259.156C429.152 237.243 421.897 223.876 411.274 215.846L410.671 216.643C420.984 224.44 428.13 237.452 426.179 259.066L427.174 259.156ZM399.316 290.592C404.586 289.264 411.053 286.93 416.456 282.156C421.871 277.369 426.181 270.16 427.174 259.156L426.179 259.066C425.207 269.826 421.011 276.795 415.793 281.406C410.563 286.029 404.272 288.312 399.072 289.622L399.316 290.592ZM168.453 207.5H141.263V208.5H168.453V207.5ZM170.938 269.138C171.941 261.857 171.439 246.536 170.693 233.09C170.32 226.355 169.885 220.072 169.543 215.474C169.372 213.174 169.224 211.295 169.119 209.991C169.066 209.339 169.025 208.831 168.996 208.486C168.982 208.313 168.971 208.181 168.963 208.092C168.959 208.048 168.956 208.014 168.955 207.992C168.954 207.98 168.953 207.972 168.952 207.966C168.952 207.963 168.952 207.961 168.952 207.96C168.952 207.959 168.952 207.958 168.952 207.958C168.952 207.958 168.952 207.957 168.453 208C167.955 208.043 167.955 208.043 167.955 208.043C167.955 208.043 167.955 208.044 167.955 208.045C167.956 208.046 167.956 208.048 167.956 208.051C167.956 208.056 167.957 208.065 167.958 208.076C167.96 208.098 167.963 208.132 167.967 208.176C167.974 208.265 167.985 208.396 167.999 208.569C168.028 208.913 168.07 209.421 168.122 210.072C168.227 211.374 168.375 213.251 168.545 215.548C168.887 220.142 169.322 226.418 169.695 233.145C170.442 246.622 170.934 261.836 169.948 269.002L170.938 269.138ZM147.446 306.064C147.538 306.25 147.695 306.397 147.908 306.463C148.102 306.523 148.292 306.501 148.446 306.46C148.746 306.379 149.077 306.18 149.411 305.933C150.096 305.425 150.982 304.569 151.995 303.458C154.027 301.228 156.637 297.892 159.269 294.038C161.901 290.183 164.562 285.796 166.692 281.462C168.818 277.134 170.43 272.827 170.938 269.138L169.948 269.002C169.461 272.536 167.902 276.732 165.794 281.021C163.69 285.303 161.055 289.648 158.443 293.474C155.83 297.301 153.248 300.598 151.256 302.784C150.255 303.882 149.421 304.681 148.816 305.129C148.505 305.359 148.299 305.464 148.187 305.494C148.135 305.508 148.151 305.492 148.203 305.508C148.276 305.53 148.325 305.584 148.344 305.623L147.446 306.064ZM127.661 287.824L147.556 306.21L148.234 305.476L128.339 287.089L127.661 287.824ZM133.325 279.988C131.514 282.115 129.605 284.358 127.594 287.165L128.406 287.748C130.391 284.978 132.275 282.764 134.086 280.636L133.325 279.988ZM143.454 264.281C140.362 271.719 137.043 275.619 133.325 279.988L134.086 280.636C137.82 276.25 141.223 272.253 144.378 264.665L143.454 264.281ZM141.263 208C140.77 208.079 140.77 208.08 140.77 208.08C140.77 208.08 140.77 208.081 140.77 208.081C140.77 208.083 140.771 208.085 140.771 208.087C140.772 208.093 140.773 208.101 140.775 208.112C140.778 208.133 140.784 208.166 140.79 208.209C140.804 208.294 140.824 208.422 140.85 208.589C140.902 208.923 140.978 209.414 141.073 210.043C141.264 211.302 141.53 213.114 141.835 215.323C142.446 219.741 143.212 225.746 143.833 232.099C144.454 238.454 144.929 245.147 144.96 250.943C144.976 253.84 144.88 256.506 144.638 258.789C144.395 261.079 144.007 262.952 143.454 264.281L144.378 264.665C144.985 263.204 145.385 261.219 145.632 258.894C145.88 256.562 145.976 253.857 145.96 250.937C145.929 245.098 145.451 238.37 144.828 232.002C144.206 225.632 143.438 219.612 142.826 215.186C142.52 212.972 142.253 211.157 142.062 209.894C141.967 209.263 141.891 208.77 141.838 208.434C141.812 208.267 141.792 208.138 141.778 208.052C141.771 208.009 141.766 207.976 141.762 207.954C141.761 207.943 141.759 207.935 141.758 207.929C141.758 207.926 141.758 207.924 141.757 207.923C141.757 207.922 141.757 207.921 141.757 207.921C141.757 207.921 141.757 207.921 141.263 208ZM322 326.5C328.329 326.5 333.5 321.597 333.5 315.5H332.5C332.5 321.001 327.821 325.5 322 325.5V326.5ZM310.5 315.5C310.5 321.597 315.671 326.5 322 326.5V325.5C316.179 325.5 311.5 321.001 311.5 315.5H310.5ZM322 304.5C315.671 304.5 310.5 309.403 310.5 315.5H311.5C311.5 309.999 316.179 305.5 322 305.5V304.5ZM333.5 315.5C333.5 309.403 328.329 304.5 322 304.5V305.5C327.821 305.5 332.5 309.999 332.5 315.5H333.5ZM326.007 146.817C324.436 148.024 322.44 148.747 320.264 148.747V149.747C322.664 149.747 324.874 148.948 326.616 147.61L326.007 146.817ZM332.358 148.747C330.182 148.747 328.186 148.024 326.616 146.817L326.007 147.61C327.749 148.948 329.958 149.747 332.358 149.747V148.747ZM341.533 139.975C341.533 144.8 337.445 148.747 332.358 148.747V149.747C337.957 149.747 342.533 145.392 342.533 139.975H341.533ZM332.358 131.204C337.445 131.204 341.533 135.151 341.533 139.975H342.533C342.533 134.559 337.957 130.204 332.358 130.204V131.204ZM326.616 133.134C328.186 131.927 330.182 131.204 332.358 131.204V130.204C329.958 130.204 327.749 131.002 326.007 132.341L326.616 133.134ZM320.264 131.204C322.44 131.204 324.436 131.927 326.007 133.134L326.616 132.341C324.874 131.002 322.664 130.204 320.264 130.204V131.204ZM311.089 139.975C311.089 135.151 315.177 131.204 320.264 131.204V130.204C314.665 130.204 310.089 134.559 310.089 139.975H311.089ZM320.264 148.747C315.177 148.747 311.089 144.8 311.089 139.975H310.089C310.089 145.392 314.665 149.747 320.264 149.747V148.747ZM95.1776 184.5H124V183.5H95.1776V184.5ZM95.6776 254.969V184H94.6776V254.969H95.6776ZM85.3712 260.726C87.9946 260.624 89.7328 260.197 91.2378 259.298C92.7209 258.412 93.939 257.086 95.5486 255.304L94.8066 254.634C93.1733 256.442 92.0555 257.645 90.7249 258.44C89.4164 259.222 87.8631 259.628 85.3325 259.727L85.3712 260.726ZM43.9704 259.399C55.4839 262.07 65.8442 261.783 85.3789 260.725L85.3248 259.727C65.7731 260.786 55.5511 261.059 44.1964 258.425L43.9704 259.399ZM33.7742 245.897C34.7528 249.601 35.7471 252.302 37.2757 254.414C38.8151 256.54 40.8662 258.028 43.8802 259.369L44.2866 258.455C41.3773 257.161 39.4908 255.768 38.0858 253.828C36.67 251.872 35.713 249.32 34.741 245.642L33.7742 245.897ZM37.7467 229.763C36.1699 232.721 34.9475 235.084 34.2362 237.531C33.5198 239.997 33.3261 242.528 33.7619 245.835L34.7533 245.704C34.3329 242.514 34.5239 240.125 35.1965 237.811C35.8741 235.479 37.045 233.205 38.6292 230.234L37.7467 229.763ZM18.1883 211.301L37.8399 230.358L38.536 229.64L18.8844 210.583L18.1883 211.301ZM5.92851 252.259C3.88507 239.954 9.3038 223.734 18.9323 211.247L18.1404 210.637C8.40459 223.262 2.83871 239.757 4.94202 252.423L5.92851 252.259ZM38.3242 288.001C36.0974 287.371 33.081 285.611 29.7495 283.084C26.4306 280.566 22.841 277.32 19.4725 273.764C16.1038 270.208 12.9649 266.35 10.5423 262.613C8.11404 258.868 6.43033 255.281 5.92851 252.259L4.94202 252.423C5.47689 255.643 7.24575 259.367 9.70317 263.157C12.1662 266.957 15.3461 270.862 18.7465 274.452C22.1472 278.042 25.7771 281.326 29.1452 283.881C32.5007 286.426 35.639 288.28 38.0517 288.964L38.3242 288.001ZM95.1113 287.987C90.2295 288.64 78.3267 289.297 66.4708 289.461C60.5468 289.543 54.6448 289.502 49.6479 289.277C44.6343 289.051 40.5811 288.641 38.3242 288.001L38.0517 288.964C40.4343 289.638 44.5963 290.05 49.6029 290.276C54.6262 290.502 60.5493 290.543 66.4846 290.461C78.3474 290.297 90.2999 289.639 95.2439 288.978L95.1113 287.987ZM123.5 275.34C123.5 275.643 123.308 276.079 122.794 276.647C122.293 277.201 121.548 277.812 120.597 278.458C118.698 279.749 116.047 281.131 113.072 282.439C107.119 285.057 99.9606 287.338 95.1114 287.987L95.2439 288.978C100.22 288.312 107.474 285.993 113.475 283.355C116.477 282.034 119.19 280.624 121.159 279.286C122.143 278.617 122.959 277.955 123.535 277.318C124.098 276.696 124.5 276.023 124.5 275.34H123.5ZM123.5 184V275.34H124.5V184H123.5ZM69.815 191C69.6991 191.486 69.699 191.486 69.699 191.486C69.699 191.486 69.699 191.486 69.699 191.486C69.6991 191.486 69.6993 191.486 69.6997 191.487C69.7003 191.487 69.7015 191.487 69.7031 191.487C69.7063 191.488 69.7114 191.489 69.7183 191.491C69.7321 191.494 69.7531 191.5 69.781 191.507C69.8367 191.521 69.9195 191.543 70.0257 191.572C70.2381 191.63 70.5437 191.717 70.9126 191.835C71.6517 192.071 72.6386 192.426 73.6376 192.902C74.6399 193.38 75.6334 193.97 76.4004 194.669C77.1686 195.368 77.6721 196.142 77.7802 196.989L78.7721 196.863C78.623 195.694 77.9402 194.719 77.0738 193.929C76.2061 193.139 75.1164 192.499 74.0678 192C73.0157 191.498 71.9838 191.128 71.2169 190.883C70.8327 190.76 70.5134 190.668 70.2893 190.607C70.1772 190.576 70.0887 190.553 70.0278 190.538C69.9973 190.53 69.9737 190.524 69.9574 190.52C69.9492 190.518 69.9429 190.517 69.9385 190.515C69.9362 190.515 69.9345 190.514 69.9333 190.514C69.9326 190.514 69.9321 190.514 69.9317 190.514C69.9315 190.514 69.9313 190.514 69.9312 190.514C69.9311 190.514 69.9309 190.514 69.815 191ZM61.6049 201.309C63.8889 199.983 66.0554 197.439 67.6293 195.28C68.4225 194.192 69.0769 193.185 69.5331 192.45C69.7613 192.082 69.9403 191.782 70.0625 191.573C70.1236 191.468 70.1705 191.387 70.2024 191.331C70.2183 191.303 70.2305 191.281 70.2388 191.267C70.2429 191.259 70.2461 191.254 70.2483 191.25C70.2493 191.248 70.2502 191.246 70.2508 191.245C70.2511 191.245 70.2513 191.244 70.2515 191.244C70.2516 191.244 70.2517 191.244 70.2517 191.243C70.2518 191.243 70.2518 191.243 69.815 191C69.3782 190.757 69.3782 190.757 69.3782 190.757C69.3782 190.757 69.3782 190.757 69.3781 190.757C69.3781 190.757 69.3779 190.757 69.3777 190.758C69.3773 190.758 69.3767 190.759 69.3758 190.761C69.374 190.764 69.3713 190.769 69.3675 190.776C69.3601 190.789 69.3488 190.809 69.3337 190.835C69.3036 190.888 69.2585 190.967 69.1993 191.068C69.081 191.27 68.9066 191.563 68.6834 191.922C68.2368 192.642 67.5964 193.628 66.8212 194.691C65.2585 196.835 63.1944 199.23 61.1028 200.444L61.6049 201.309ZM54.216 203.394C56.3138 203.067 59.3944 202.593 61.6049 201.309L61.1028 200.444C59.086 201.616 56.2086 202.071 54.0618 202.406L54.216 203.394ZM51.9467 203.862C51.9265 203.882 51.9452 203.856 52.078 203.809C52.196 203.766 52.3593 203.722 52.5712 203.677C52.9954 203.585 53.5536 203.498 54.216 203.394L54.0618 202.406C53.4104 202.508 52.819 202.6 52.3598 202.699C52.1301 202.749 51.9182 202.803 51.7405 202.867C51.5775 202.926 51.3798 203.013 51.2352 203.159L51.9467 203.862ZM51.591 214.704C52.09 214.674 52.09 214.674 52.09 214.673C52.09 214.673 52.09 214.673 52.09 214.673C52.09 214.673 52.09 214.672 52.0899 214.672C52.0898 214.671 52.0897 214.669 52.0896 214.666C52.0893 214.661 52.0888 214.654 52.0882 214.644C52.087 214.624 52.0852 214.595 52.083 214.556C52.0784 214.479 52.0717 214.366 52.0635 214.222C52.047 213.933 52.0242 213.52 51.9989 213.023C51.9482 212.027 51.8874 210.693 51.8469 209.339C51.8063 207.984 51.7864 206.617 51.8164 205.552C51.8315 205.017 51.8589 204.571 51.9003 204.243C51.9212 204.079 51.9439 203.958 51.9661 203.877C51.9951 203.771 52.0044 203.804 51.9467 203.862L51.2352 203.159C51.0963 203.3 51.0344 203.493 51.0015 203.613C50.9618 203.758 50.9319 203.931 50.9082 204.118C50.8607 204.493 50.8322 204.977 50.8168 205.523C50.7859 206.618 50.8066 208.009 50.8473 209.369C50.8881 210.732 50.9493 212.073 51.0002 213.073C51.0256 213.574 51.0486 213.989 51.0651 214.279C51.0734 214.424 51.0801 214.538 51.0847 214.616C51.087 214.654 51.0888 214.684 51.0901 214.704C51.0907 214.714 51.0911 214.722 51.0914 214.727C51.0916 214.73 51.0917 214.732 51.0918 214.733C51.0918 214.734 51.0919 214.734 51.0919 214.735C51.0919 214.735 51.0919 214.735 51.0919 214.735C51.0919 214.735 51.0919 214.735 51.591 214.704ZM68.218 214.353C68.056 214.189 67.8348 214.086 67.6287 214.015C67.4117 213.94 67.1546 213.881 66.8727 213.833C66.3081 213.738 65.5922 213.68 64.7903 213.649C63.1835 213.587 61.1743 213.629 59.2175 213.711C57.2582 213.794 55.341 213.917 53.9143 214.021C53.2007 214.072 52.6094 214.118 52.1963 214.152C51.9897 214.169 51.8277 214.182 51.7172 214.192C51.6619 214.196 51.6195 214.2 51.5909 214.203C51.5766 214.204 51.5657 214.205 51.5584 214.205C51.5547 214.206 51.552 214.206 51.5501 214.206C51.5491 214.206 51.5484 214.206 51.5479 214.206C51.5477 214.206 51.5475 214.206 51.5474 214.206C51.5472 214.206 51.5472 214.206 51.591 214.704C51.6348 215.202 51.6348 215.202 51.6349 215.202C51.635 215.202 51.6352 215.202 51.6354 215.202C51.6358 215.202 51.6365 215.202 51.6373 215.202C51.6391 215.202 51.6417 215.202 51.6453 215.202C51.6524 215.201 51.663 215.2 51.677 215.199C51.7051 215.196 51.747 215.193 51.8017 215.188C51.9111 215.179 52.0719 215.165 52.2772 215.149C52.6878 215.115 53.2762 215.069 53.9864 215.018C55.4072 214.915 57.3137 214.792 59.2596 214.71C61.2079 214.628 63.1853 214.588 64.7514 214.648C65.536 214.679 66.2032 214.734 66.7064 214.819C66.9584 214.862 67.1563 214.91 67.3016 214.96C67.3737 214.985 67.4262 215.008 67.4625 215.028C67.5 215.048 67.5103 215.059 67.5068 215.056L68.218 214.353ZM67.8624 217.338C68.218 217.69 68.2182 217.69 68.2184 217.689C68.2185 217.689 68.2186 217.689 68.2188 217.689C68.2191 217.689 68.2193 217.688 68.2197 217.688C68.2203 217.687 68.221 217.687 68.2217 217.686C68.2233 217.684 68.2252 217.682 68.2273 217.68C68.2317 217.676 68.2372 217.67 68.2438 217.663C68.2571 217.648 68.2746 217.629 68.2955 217.604C68.3372 217.556 68.3929 217.487 68.4539 217.4C68.5747 217.229 68.7242 216.979 68.8255 216.672C68.9274 216.362 68.9834 215.986 68.9021 215.575C68.8201 215.16 68.605 214.744 68.218 214.353L67.5068 215.056C67.7707 215.323 67.881 215.566 67.9211 215.768C67.9619 215.975 67.9365 216.174 67.8757 216.359C67.8142 216.545 67.7196 216.707 67.637 216.823C67.5964 216.881 67.5605 216.925 67.5361 216.954C67.524 216.968 67.5148 216.978 67.5096 216.984C67.507 216.986 67.5054 216.988 67.5049 216.989C67.5047 216.989 67.5047 216.989 67.505 216.989C67.5052 216.988 67.5054 216.988 67.5057 216.988C67.5058 216.988 67.506 216.988 67.5062 216.987C67.5063 216.987 67.5065 216.987 67.5065 216.987C67.5067 216.987 67.5068 216.987 67.8624 217.338ZM50.7893 217.338C50.7893 217.57 50.5994 217.622 50.7056 217.571C50.7737 217.538 50.9102 217.494 51.1364 217.452C51.5795 217.369 52.2359 217.313 53.0538 217.282C54.6819 217.221 56.8632 217.262 59.0571 217.344C61.2481 217.426 63.4403 217.549 65.0855 217.652C65.9078 217.703 66.5931 217.75 67.0726 217.783C67.3124 217.8 67.5007 217.813 67.629 217.822C67.6931 217.827 67.7422 217.831 67.7753 217.833C67.7918 217.834 67.8043 217.835 67.8126 217.836C67.8168 217.836 67.8199 217.836 67.822 217.837C67.8231 217.837 67.8238 217.837 67.8243 217.837C67.8246 217.837 67.8248 217.837 67.8249 217.837C67.825 217.837 67.8251 217.837 67.8624 217.338C67.8998 216.84 67.8997 216.84 67.8996 216.84C67.8994 216.84 67.8992 216.84 67.8989 216.84C67.8984 216.84 67.8975 216.839 67.8965 216.839C67.8943 216.839 67.891 216.839 67.8868 216.839C67.8782 216.838 67.8655 216.837 67.8488 216.836C67.8153 216.833 67.7658 216.83 67.7012 216.825C67.5721 216.816 67.3828 216.802 67.142 216.785C66.6605 216.752 65.9729 216.706 65.1478 216.654C63.498 216.551 61.2969 216.427 59.0946 216.345C56.8952 216.262 54.6833 216.221 53.0164 216.283C52.1867 216.314 51.4703 216.372 50.9523 216.469C50.698 216.516 50.457 216.579 50.2677 216.672C50.1165 216.745 49.7893 216.941 49.7893 217.338H50.7893ZM50.6881 219.195C50.7421 218.398 50.7893 217.707 50.7893 217.338H49.7893C49.7893 217.664 49.7459 218.309 49.6904 219.127L50.6881 219.195ZM50.6449 224.888C50.6777 224.921 50.6565 224.919 50.623 224.798C50.5939 224.693 50.5677 224.544 50.5473 224.35C50.5066 223.963 50.4944 223.452 50.5022 222.87C50.5178 221.709 50.6115 220.325 50.6881 219.195L49.6904 219.127C49.6142 220.251 49.5183 221.663 49.5023 222.857C49.4943 223.452 49.5059 224.009 49.5527 224.455C49.5761 224.677 49.6096 224.886 49.6593 225.065C49.7045 225.228 49.781 225.437 49.9337 225.591L50.6449 224.888ZM70.9292 224.776C70.5824 224.917 70.0129 225.044 69.246 225.149C68.4888 225.254 67.573 225.332 66.5536 225.389C64.5154 225.501 62.0875 225.522 59.7354 225.481C57.3837 225.439 55.1159 225.337 53.3991 225.204C52.5395 225.138 51.8254 225.064 51.3106 224.988C51.052 224.95 50.8542 224.913 50.7175 224.878C50.6486 224.861 50.6058 224.846 50.583 224.837C50.5462 224.822 50.59 224.833 50.6449 224.888L49.9337 225.591C50.0292 225.688 50.1455 225.739 50.2111 225.765C50.2907 225.797 50.3802 225.824 50.4719 225.847C50.6561 225.894 50.8919 225.937 51.1646 225.977C51.7125 226.058 52.4527 226.134 53.3219 226.201C55.0628 226.336 57.351 226.439 59.718 226.48C62.0846 226.522 64.5382 226.501 66.6086 226.387C67.6434 226.33 68.5886 226.249 69.3823 226.14C70.1662 226.032 70.8375 225.892 71.3043 225.703L70.9292 224.776ZM77.8013 217.84C76.609 221.459 74.0877 223.498 70.9292 224.776L71.3043 225.703C74.6544 224.347 77.4426 222.124 78.751 218.153L77.8013 217.84ZM77.8115 210.938C78.3127 212.2 78.5174 213.274 78.4989 214.344C78.4802 215.421 78.2357 216.522 77.8013 217.84L78.751 218.153C79.2008 216.788 79.4776 215.58 79.4987 214.362C79.5199 213.138 79.2825 211.932 78.7408 210.569L77.8115 210.938ZM71.1167 204.828C70.9168 205.286 70.9167 205.286 70.9167 205.286C70.9167 205.286 70.9167 205.286 70.9167 205.286C70.9168 205.286 70.9169 205.286 70.9171 205.286C70.9176 205.286 70.9184 205.287 70.9196 205.287C70.9219 205.288 70.9255 205.29 70.9306 205.292C70.9406 205.296 70.9559 205.303 70.9763 205.312C71.0171 205.331 71.0779 205.359 71.1564 205.396C71.3133 205.469 71.5403 205.579 71.8175 205.721C72.3725 206.006 73.1254 206.421 73.918 206.938C75.5312 207.99 77.1999 209.399 77.8115 210.938L78.7408 210.569C78.005 208.717 76.0939 207.163 74.4643 206.1C73.6355 205.56 72.8512 205.128 72.2743 204.832C71.9856 204.684 71.748 204.569 71.5818 204.491C71.4987 204.452 71.4333 204.422 71.3883 204.401C71.3658 204.391 71.3484 204.383 71.3363 204.378C71.3303 204.375 71.3256 204.373 71.3223 204.372C71.3207 204.371 71.3194 204.37 71.3184 204.37C71.3179 204.37 71.3176 204.37 71.3173 204.37C71.3171 204.369 71.3169 204.369 71.3169 204.369C71.3167 204.369 71.3166 204.369 71.1167 204.828ZM77.7802 196.989C77.8912 197.86 77.5769 198.749 76.9696 199.628C76.363 200.506 75.4943 201.328 74.5864 202.04C73.6817 202.75 72.7576 203.336 72.0576 203.745C71.7082 203.949 71.4162 204.109 71.2123 204.216C71.1104 204.27 71.0307 204.311 70.9769 204.338C70.95 204.352 70.9296 204.362 70.9162 204.369C70.9096 204.372 70.9046 204.375 70.9015 204.376C70.8999 204.377 70.8988 204.378 70.8981 204.378C70.8978 204.378 70.8976 204.378 70.8975 204.378C70.8974 204.378 70.8975 204.378 70.8974 204.378C70.8975 204.378 70.8976 204.378 71.1167 204.828C71.3359 205.277 71.336 205.277 71.3362 205.277C71.3363 205.277 71.3365 205.277 71.3367 205.277C71.337 205.276 71.3375 205.276 71.3381 205.276C71.3393 205.275 71.341 205.274 71.3431 205.273C71.3474 205.271 71.3534 205.268 71.3613 205.264C71.377 205.257 71.3997 205.245 71.429 205.23C71.4876 205.201 71.5725 205.157 71.6798 205.1C71.8944 204.987 72.1989 204.821 72.5621 204.608C73.2872 204.185 74.2523 203.574 75.2037 202.827C76.1519 202.083 77.1061 201.189 77.7923 200.196C78.4777 199.204 78.9259 198.068 78.7721 196.863L77.7802 196.989Z" fill="#052B36"/>
</g>
<defs>
<filter id="filter0_d_71_50" x="0.5" y="0.32959" width="431.136" height="334.17" filterUnits="userSpaceOnUse" color-interpolation-filters="sRGB">
<feFlood flood-opacity="0" result="BackgroundImageFix"/>
<feColorMatrix in="SourceAlpha" type="matrix" values="0 0 0 0 0 0 0 0 0 0 0 0 0 0 0 0 0 0 127 0" result="hardAlpha"/>
<feOffset dy="4"/>
<feGaussianBlur stdDeviation="2"/>
<feComposite in2="hardAlpha" operator="out"/>
<feColorMatrix type="matrix" values="0 0 0 0 0 0 0 0 0 0 0 0 0 0 0 0 0 0 0.25 0"/>
<feBlend mode="normal" in2="BackgroundImageFix" result="effect1_dropShadow_71_50"/>
<feBlend mode="normal" in="SourceGraphic" in2="effect1_dropShadow_71_50" result="shape"/>
</filter>
</defs>
</svg>
