<svg width="39" height="55" viewBox="0 0 39 55" fill="none" xmlns="http://www.w3.org/2000/svg">
<path d="M24.4625 2.84331C21.0799 4.14693 17.1761 8.90422 15.1044 14.2507L14.3483 16.2435L11.2687 16.0103C7.23235 15.7214 4.98778 16.7162 3.49084 19.5233C-0.534288 27.2752 5.84121 44.156 15.685 51.8588C19.2029 54.6368 19.6937 54.451 23.5662 49.3167C30.3861 40.2805 33.7269 34.204 36.142 26.6263C40.8626 11.518 34.7195 -1.11477 24.4625 2.84331ZM30.3692 6.72535C32.483 7.97421 33.8626 11.7531 33.9637 16.4223C34.0498 24.0922 29.9626 33.8237 22.0083 44.9378C19.9173 47.8711 18.0201 50.2262 17.7544 50.2107C16.6382 50.1456 11.2653 42.5962 9.51982 38.6888C3.99886 26.3603 5.32869 17.2721 12.2388 20.4086C13.1738 20.8383 13.6147 21.5072 13.7401 23.0153C14.4325 29.4342 17.3288 34.6416 20.3052 34.8151C22.2186 34.9267 23.5439 33.2351 23.7058 30.4573C23.8177 27.623 22.5195 24.2776 19.9801 21.1815L17.8911 18.5941L18.619 16.1709C20.4498 10.3815 24.6694 5.69623 27.971 5.78151C28.5025 5.8125 29.5969 6.25151 30.3692 6.72535Z" fill="black"/>
</svg>
